<?xml version="1.0" encoding="UTF-8"?>
<svg version="1.1" xmlns="http://www.w3.org/2000/svg" width="736" height="736">
<path d="M0 0 C242.88 0 485.76 0 736 0 C736 242.88 736 485.76 736 736 C493.12 736 250.24 736 0 736 C0 493.12 0 250.24 0 0 Z " fill="#FEFEFE" transform="translate(0,0)"/>
<path d="M0 0 C2.38497015 -0.0027193 4.76993946 -0.00628543 7.15490723 -0.01062012 C13.55587549 -0.01963586 19.95677834 -0.01624487 26.35774755 -0.00986195 C30.37429792 -0.0068161 34.39083266 -0.00698978 38.40738297 -0.00884247 C39.41535343 -0.00930217 39.41535343 -0.00930217 40.44368694 -0.00977115 C41.80988311 -0.01041077 43.17607928 -0.0110592 44.54227544 -0.01171634 C57.2809927 -0.01738656 70.01968093 -0.01091462 82.75839342 -0.0001156 C93.62572732 0.00881275 104.49301844 0.00726728 115.36035156 -0.00195312 C128.05812058 -0.01272192 140.75586429 -0.01683327 153.45363724 -0.0107286 C154.81472468 -0.01009167 156.17581212 -0.00946293 157.53689957 -0.00884247 C158.54074893 -0.00837964 158.54074893 -0.00837964 159.56487807 -0.00790747 C164.22070632 -0.0061999 168.87651773 -0.00915424 173.53234482 -0.01380157 C179.83140694 -0.01965157 186.13038966 -0.01544084 192.42944336 -0.00401306 C194.71804804 -0.00140661 197.0066596 -0.00206108 199.29526138 -0.00653839 C211.29773713 -0.02782362 223.2131784 0.27016323 235.18582153 1.16168213 C236.80158311 1.28024586 236.80158311 1.28024586 238.44998634 1.40120482 C246.41842938 2.05285061 253.60224844 3.39787642 261.10595703 6.25878906 C262.14494141 6.64164063 263.18392578 7.02449219 264.25439453 7.41894531 C275.59601289 11.86131724 284.33363334 17.8480486 293.10595703 26.25878906 C293.99283203 27.08378906 294.87970703 27.90878906 295.79345703 28.75878906 C319.24825693 54.1153295 320.25927318 84.51014126 320.2512207 117.26538086 C320.25421639 119.69946341 320.25761986 122.13354549 320.26139832 124.56762695 C320.26929142 130.47393335 320.27245138 136.38023035 320.27301069 142.28654095 C320.27348815 147.09820761 320.27555429 151.90987101 320.27871132 156.72153664 C320.28750979 170.41371857 320.2921324 184.10589271 320.29138085 197.79807749 C320.29132091 198.90265193 320.29132091 198.90265193 320.29125977 200.02954102 C320.29121888 200.76684154 320.291178 201.50414207 320.29113588 202.26378504 C320.29073049 214.18012123 320.30027514 226.09642566 320.31439813 238.01275267 C320.32884087 250.29762034 320.33566389 262.58247261 320.33480436 274.86734897 C320.33447491 281.74429435 320.33710916 288.62120651 320.34798241 295.49814415 C320.35816649 301.9800636 320.35767234 308.46193151 320.35046577 314.94385529 C320.34943246 317.30221218 320.35170666 319.66057363 320.35782623 322.01892281 C320.38689067 334.0118542 320.1335585 345.91514243 319.20405579 357.87605286 C319.12495348 358.90413486 319.04585118 359.93221687 318.96435183 360.99145287 C318.29295836 368.80765822 316.8832564 375.88789419 314.10595703 383.25878906 C313.72310547 384.2990625 313.34025391 385.33933594 312.94580078 386.41113281 C308.49885817 397.75012154 302.51663379 406.4865318 294.10595703 415.25878906 C293.28095703 416.14566406 292.45595703 417.03253906 291.60595703 417.94628906 C259.95226951 447.22595002 215.48507049 442.67509612 175.48095703 442.44628906 C160.17720703 442.38441406 144.87345703 442.32253906 129.10595703 442.25878906 C129.10595703 390.11878906 129.10595703 337.97878906 129.10595703 284.25878906 C146.26595703 284.25878906 163.42595703 284.25878906 181.10595703 284.25878906 C181.43595703 279.63878906 181.76595703 275.01878906 182.10595703 270.25878906 C182.45348461 266.90024487 182.81666363 263.55425673 183.22705078 260.20410156 C183.38428368 258.89721878 183.38428368 258.89721878 183.54469299 257.56393433 C183.7639677 255.75074387 183.98499221 253.93776416 184.20776367 252.125 C184.54536175 249.36823547 184.87376491 246.61047256 185.20166016 243.85253906 C185.41790469 242.07382599 185.63468259 240.29517767 185.85205078 238.51660156 C185.94796005 237.70498566 186.04386932 236.89336975 186.14268494 236.05715942 C186.23940994 235.28210052 186.33613495 234.50704163 186.43579102 233.70849609 C186.51715805 233.04012726 186.59852509 232.37175842 186.68235779 231.68313599 C187.29638711 228.16891798 188.24072125 224.71973218 189.10595703 221.25878906 C169.30595703 221.25878906 149.50595703 221.25878906 129.10595703 221.25878906 C129.02345703 214.98878906 128.94095703 208.71878906 128.85595703 202.25878906 C128.81954102 200.31617188 128.783125 198.37355469 128.74560547 196.37207031 C128.59542968 182.54222968 129.16486392 166.97867749 139.10595703 156.25878906 C146.31570689 149.49777882 154.00921392 146.76254403 163.76220703 146.96582031 C164.4618457 146.96884155 165.16148437 146.97186279 165.88232422 146.97497559 C168.45702193 146.9904875 171.03150677 147.03236922 173.60595703 147.07128906 C179.38095703 147.13316406 185.15595703 147.19503906 191.10595703 147.25878906 C191.10595703 129.76878906 191.10595703 112.27878906 191.10595703 94.25878906 C185.16595703 93.76378906 185.16595703 93.76378906 179.10595703 93.25878906 C176.30224609 92.74638672 176.30224609 92.74638672 173.44189453 92.22363281 C165.57260777 90.8515586 157.69422911 90.81713476 149.73095703 90.82128906 C148.93903961 90.82088623 148.14712219 90.8204834 147.33120728 90.82006836 C124.56434528 90.88664065 103.1555851 94.53080959 86.23876953 111.00097656 C69.10142991 129.14270239 62.92630513 152.62951199 62.69189453 177.11816406 C62.67252838 178.3885553 62.65316223 179.65894653 62.63320923 180.96783447 C62.58399281 184.30166283 62.54254767 187.63539325 62.50506592 190.96936035 C62.46464281 194.38884791 62.41382711 197.80818121 62.36376953 201.22753906 C62.26676681 207.90455948 62.18676529 214.58147497 62.10595703 221.25878906 C43.95595703 221.25878906 25.80595703 221.25878906 7.10595703 221.25878906 C7.10595703 242.04878906 7.10595703 262.83878906 7.10595703 284.25878906 C25.25595703 284.25878906 43.40595703 284.25878906 62.10595703 284.25878906 C62.10595703 336.39878906 62.10595703 388.53878906 62.10595703 442.25878906 C41.59439453 442.32066406 41.59439453 442.32066406 20.66845703 442.38378906 C14.27515015 442.41110107 14.27515015 442.41110107 7.75268555 442.43896484 C-68.2485825 442.63108759 -68.2485825 442.63108759 -94.89404297 417.25878906 C-97.41627441 414.71661903 -99.69861566 412.08679712 -101.89404297 409.25878906 C-102.47798828 408.51113281 -103.06193359 407.76347656 -103.66357422 406.99316406 C-122.4523996 381.6139228 -122.04690878 350.50441298 -122.03930664 320.37060547 C-122.04230409 317.98534086 -122.04570796 315.60007673 -122.04948425 313.21481323 C-122.05827086 306.772077 -122.06066016 300.32935407 -122.06130004 293.88661242 C-122.061797 289.8485138 -122.0640915 285.81041746 -122.06679726 281.77231979 C-122.07558913 268.37454992 -122.08021916 254.97678799 -122.07946678 241.57901521 C-122.07942683 240.85926343 -122.07938687 240.13951166 -122.0793457 239.39794922 C-122.07930482 238.67729827 -122.07926394 237.95664732 -122.07922182 237.21415846 C-122.07881619 225.55990703 -122.08836869 213.90568803 -122.10248407 202.25144596 C-122.11692857 190.22864615 -122.12374979 178.20586206 -122.12289029 166.18305337 C-122.122561 159.45593965 -122.12538966 152.72886499 -122.13606834 146.00175858 C-122.14585607 139.66342811 -122.14575656 133.32516866 -122.13855171 126.98683548 C-122.13751884 124.68169041 -122.13978983 122.37654067 -122.14591217 120.0714035 C-122.1752451 108.24585493 -121.91145905 96.51009024 -120.99604797 84.71615601 C-120.91746935 83.69193122 -120.83889073 82.66770643 -120.75793093 81.61244452 C-119.78114734 70.20808055 -117.13757179 59.48736289 -111.89404297 49.25878906 C-111.48669922 48.40027344 -111.07935547 47.54175781 -110.65966797 46.65722656 C-100.38486774 26.16534969 -81.2929377 12.66491806 -60.30810547 4.93847656 C-41.11022535 -0.88559943 -19.86016983 -0.0387776 0 0 Z " fill="#007FFE" transform="translate(268.89404296875,146.7412109375)"/>
<path d="M0 0 C0.33 0 0.66 0 1 0 C1.05425013 2.87525669 1.09379277 5.74947646 1.125 8.625 C1.14175781 9.43324219 1.15851563 10.24148438 1.17578125 11.07421875 C1.18544922 12.26337891 1.18544922 12.26337891 1.1953125 13.4765625 C1.21102295 14.5605835 1.21102295 14.5605835 1.22705078 15.66650391 C1 18 1 18 -1 24 C-17.83 24 -34.66 24 -52 24 C-52 75.15 -52 126.3 -52 179 C-34.71625 178.855625 -17.4325 178.71125 0.375 178.5625 C5.83853027 178.51939697 11.30206055 178.47629395 16.93115234 178.43188477 C21.81563397 178.38864601 21.81563397 178.38864601 26.70010376 178.34410095 C28.88083402 178.32484143 31.06158199 178.30752859 33.24234009 178.29173279 C36.53971034 178.26747513 39.83697217 178.23709968 43.13427734 178.20532227 C44.11075918 178.19955201 45.08724102 178.19378176 46.09331322 178.18783665 C46.97770388 178.17806262 47.86209454 178.16828859 48.77328491 178.15821838 C49.54574743 178.15176583 50.31820995 178.14531328 51.11408043 178.1386652 C53.08977948 178.11361963 53.08977948 178.11361963 55 177 C57.55877893 176.68879716 60.11851612 176.49035334 62.6875 176.28125 C65.02268455 176.12863953 65.02268455 176.12863953 67 175 C68.99960012 174.960008 71.00047242 174.95653201 73 175 C73 173.68 73 172.36 73 171 C74.65 170.67 76.3 170.34 78 170 C78 170.66 78 171.32 78 172 C80.35171131 171.40138258 82.6859378 170.73075648 85 170 C85.33 169.34 85.66 168.68 86 168 C87.98 168 89.96 168 92 168 C81.94768509 176.4863764 66.64042812 178.5270978 54 180 C53.24444824 180.08855255 52.48889648 180.1771051 51.71044922 180.26834106 C41.10422875 181.32328085 30.4735211 181.12544389 19.828125 181.09765625 C17.93408233 181.09618304 16.04003925 181.09516467 14.14599609 181.09460449 C7.18065779 181.08939555 0.21532824 181.07543437 -6.75 181.0625 C-30.13875 181.0315625 -30.13875 181.0315625 -54 181 C-54 128.86 -54 76.72 -54 23 C-36.84 23 -19.68 23 -2 23 C-1.67 18.38 -1.34 13.76 -1 9 C-0.68583016 5.99793264 -0.36167257 2.99671555 0 0 Z " fill="#3B92E9" transform="translate(452,408)"/>
<path d="M0 0 C2.38497015 -0.0027193 4.76993946 -0.00628543 7.15490723 -0.01062012 C13.55587549 -0.01963586 19.95677834 -0.01624487 26.35774755 -0.00986195 C30.37429792 -0.0068161 34.39083266 -0.00698978 38.40738297 -0.00884247 C39.41535343 -0.00930217 39.41535343 -0.00930217 40.44368694 -0.00977115 C41.80988311 -0.01041077 43.17607928 -0.0110592 44.54227544 -0.01171634 C57.2809927 -0.01738656 70.01968093 -0.01091462 82.75839342 -0.0001156 C93.62572732 0.00881275 104.49301844 0.00726728 115.36035156 -0.00195312 C128.05812058 -0.01272192 140.75586429 -0.01683327 153.45363724 -0.0107286 C154.81472468 -0.01009167 156.17581212 -0.00946293 157.53689957 -0.00884247 C158.54074893 -0.00837964 158.54074893 -0.00837964 159.56487807 -0.00790747 C164.22070632 -0.0061999 168.87651773 -0.00915424 173.53234482 -0.01380157 C179.83140694 -0.01965157 186.13038966 -0.01544084 192.42944336 -0.00401306 C194.71804804 -0.00140661 197.0066596 -0.00206108 199.29526138 -0.00653839 C211.29773713 -0.02782362 223.2131784 0.27016323 235.18582153 1.16168213 C236.80158311 1.28024586 236.80158311 1.28024586 238.44998634 1.40120482 C246.41582024 2.05263724 253.60660121 3.39254312 261.10595703 6.25878906 C262.76884766 6.88527344 262.76884766 6.88527344 264.46533203 7.52441406 C269.10950437 9.36875045 273.20197728 11.09711532 277.10595703 14.25878906 C270.35595703 13.38378906 270.35595703 13.38378906 268.10595703 12.25878906 C268.10595703 11.59878906 268.10595703 10.93878906 268.10595703 10.25878906 C267.49107422 10.20980469 266.87619141 10.16082031 266.24267578 10.11035156 C265.43443359 10.03558594 264.62619141 9.96082031 263.79345703 9.88378906 C262.99294922 9.81417969 262.19244141 9.74457031 261.36767578 9.67285156 C259.10595703 9.25878906 259.10595703 9.25878906 256.10595703 7.25878906 C253.7768088 6.89736951 251.44342226 6.56179381 249.10595703 6.25878906 C248.77595703 5.92878906 248.44595703 5.59878906 248.10595703 5.25878906 C235.51326527 1.99132918 221.987894 2.9777155 209.10791016 3 C206.47373984 2.99728701 203.83958078 2.99379612 201.20541382 2.98937988 C194.81999413 2.9805298 188.4346217 2.98238751 182.04920024 2.98820516 C176.86028546 2.99273585 171.67138385 2.99332851 166.48246765 2.99115753 C165.74187582 2.99085107 165.00128399 2.9905446 164.23824999 2.99022885 C162.73350258 2.98958936 161.22875518 2.98894093 159.72400779 2.98828366 C145.6478148 2.98259406 131.57164796 2.98911836 117.49545926 2.9998844 C105.42062517 3.00883352 93.3458295 3.00725403 81.27099609 2.99804688 C67.23016334 2.98734557 53.18935339 2.98312767 39.14851713 2.9892714 C37.65198485 2.98990848 36.15545257 2.99053722 34.65892029 2.99115753 C33.92267714 2.99146608 33.18643399 2.99177463 32.42788044 2.99209253 C27.24183679 2.99381879 22.05580764 2.99090619 16.86976624 2.98619843 C9.89623988 2.98000668 2.92278751 2.98440927 -4.05073166 2.99598694 C-6.61260736 2.99863638 -9.17448917 2.99786361 -11.73636246 2.99346161 C-15.22630258 2.98801655 -18.71600757 2.99482767 -22.20593262 3.00482178 C-23.73494619 2.99812961 -23.73494619 2.99812961 -25.29484892 2.99130225 C-30.01331743 3.01760846 -33.56517343 3.20140877 -37.89404297 5.25878906 C-40.56158509 5.24220331 -43.06560066 5.13651081 -45.70654297 4.88378906 C-46.74584961 4.79871094 -46.74584961 4.79871094 -47.80615234 4.71191406 C-49.50302743 4.57148302 -51.19869545 4.416595 -52.89404297 4.25878906 C-49.91716794 2.57808312 -47.52528247 1.92976199 -44.12859917 1.63507462 C-43.18754865 1.55245935 -42.24649813 1.46984409 -41.27693093 1.38472533 C-40.26151754 1.30725389 -39.24610415 1.22978244 -38.19992065 1.14996338 C-36.59932511 1.02358124 -36.59932511 1.02358124 -34.96639431 0.89464593 C-23.30991212 0.0427837 -11.6817778 -0.02280903 0 0 Z " fill="#2E8BE3" transform="translate(268.89404296875,146.7412109375)"/>
<path d="M0 0 C0.33 0 0.66 0 1 0 C1.48644586 2.58214028 1.96417897 5.165447 2.4375 7.75 C2.57220703 8.46027344 2.70691406 9.17054688 2.84570312 9.90234375 C5.43645371 24.18306646 5.14881786 38.549127 5.14526367 53.0065918 C5.14825936 55.44067435 5.15166283 57.87475643 5.15544128 60.30883789 C5.16333439 66.21514429 5.16649435 72.12144129 5.16705366 78.02775189 C5.16753112 82.83941854 5.16959726 87.65108195 5.17275429 92.46274757 C5.18155276 106.15492951 5.18617537 119.84710364 5.18542381 133.53928842 C5.18538386 134.27567139 5.1853439 135.01205435 5.18530273 135.77075195 C5.18526185 136.50805248 5.18522097 137.24535301 5.18517885 138.00499598 C5.18477346 149.92133217 5.19431811 161.83763659 5.2084411 173.75396361 C5.22288384 186.03883128 5.22970686 198.32368355 5.22884732 210.60855991 C5.22851788 217.48550529 5.23115212 224.36241745 5.24202538 231.23935509 C5.25220946 237.72127454 5.25171531 244.20314245 5.24450874 250.68506622 C5.24347543 253.04342311 5.24574963 255.40178457 5.2518692 257.76013374 C5.2807033 269.65801885 5.05179296 281.48658035 4.1723175 293.35554504 C4.10316515 294.34854038 4.0340128 295.34153571 3.96276492 296.36462182 C3.37269482 303.46466287 1.90416223 310.14038413 0 317 C-0.33 317 -0.66 317 -1 317 C-1.12529833 310.48448687 -1.12529833 310.48448687 -0.53125 308.1875 C0.18927732 305.22062281 0.34945751 302.2934641 0.5625 299.25 C0.64628906 298.07953125 0.73007812 296.9090625 0.81640625 295.703125 C0.87699219 294.81109375 0.93757812 293.9190625 1 293 C1.66 293 2.32 293 3 293 C3 203.24 3 113.48 3 21 C2.34 21 1.68 21 1 21 C-0.10087193 13.98194143 -0.09733092 7.09434233 0 0 Z " fill="#308AE5" transform="translate(584,211)"/>
<path d="M0 0 C0.33 0 0.66 0 1 0 C0.85982174 2.97953359 0.71313658 5.95849304 0.5625 8.9375 C0.52318359 9.78763672 0.48386719 10.63777344 0.44335938 11.51367188 C0.40146484 12.32255859 0.35957031 13.13144531 0.31640625 13.96484375 C0.27974854 14.7137085 0.24309082 15.46257324 0.20532227 16.23413086 C0 18 0 18 -1 19 C-1.10172289 20.4750333 -1.13397571 21.95491285 -1.1386652 23.43344212 C-1.14413964 24.39685034 -1.14961409 25.36025857 -1.15525442 26.35286099 C-1.15623253 27.42384988 -1.15721064 28.49483876 -1.15821838 29.59828186 C-1.16315636 30.72619674 -1.16809434 31.85411161 -1.17318195 33.01620573 C-1.1886423 36.82728987 -1.19694055 40.63835707 -1.20532227 44.44946289 C-1.21434055 47.16879148 -1.22485979 49.88811376 -1.23532104 52.60743713 C-1.25711552 58.47821912 -1.27524909 64.34900338 -1.29092598 70.21980476 C-1.31359763 78.70809306 -1.34174415 87.19635619 -1.37124526 95.68462317 C-1.41895442 109.45485813 -1.46220956 123.22510335 -1.50268555 136.99536133 C-1.54202358 150.37525228 -1.58344572 163.75513409 -1.62768555 177.13500977 C-1.63040982 177.95915782 -1.63313409 178.78330588 -1.63594092 179.63242812 C-1.64962012 183.76676126 -1.66334044 187.90109427 -1.67708123 192.03542721 C-1.79109821 226.35693259 -1.89789598 260.67845716 -2 295 C-2.33 295 -2.66 295 -3 295 C-4.13434375 282.03715506 -4.14854431 269.11579363 -4.14526367 256.11181641 C-4.14826112 253.7265518 -4.15166499 251.34128767 -4.15544128 248.95602417 C-4.16422789 242.51328793 -4.1666172 236.070565 -4.16725707 229.62782335 C-4.16775403 225.58972474 -4.17004853 221.5516284 -4.17275429 217.51353073 C-4.18154616 204.11576085 -4.18617619 190.71799893 -4.18542381 177.32022615 C-4.18538386 176.60047437 -4.1853439 175.88072259 -4.18530273 175.13916016 C-4.18526185 174.41850921 -4.18522097 173.69785826 -4.18517885 172.9553694 C-4.18477322 161.30111797 -4.19432572 149.64689897 -4.2084411 137.9926569 C-4.2228856 125.96985709 -4.22970682 113.947073 -4.22884732 101.92426431 C-4.22851803 95.19715059 -4.23134669 88.47007593 -4.24202538 81.74296951 C-4.2518131 75.40463905 -4.25171359 69.0663796 -4.24450874 62.72804642 C-4.24347588 60.42290135 -4.24574686 58.11775161 -4.2518692 55.81261444 C-4.28117424 43.99831131 -4.0201796 32.27161788 -3.1098175 20.48861694 C-3.03228625 19.46858161 -2.95475499 18.44854627 -2.87487429 17.39760077 C-2.36630884 11.44086867 -1.42871279 5.80606632 0 0 Z " fill="#2E8CE1" transform="translate(151,211)"/>
<path d="M0 0 C0.33 0 0.66 0 1 0 C1 19.47 1 38.94 1 59 C-17.15 59 -35.3 59 -54 59 C-54 79.13 -54 99.26 -54 120 C-35.19 120 -16.38 120 3 120 C2.9146514 140.43578447 2.82111358 160.87147716 2.71247292 181.30714989 C2.66229711 190.79524489 2.61585488 200.28333104 2.578125 209.77148438 C2.54523995 218.03892007 2.50542826 226.30628802 2.45720994 234.57364905 C2.43191013 238.95335653 2.41013926 243.33301887 2.39665604 247.71278 C2.38386711 251.83151914 2.36184742 255.95010373 2.33261681 260.06875801 C2.32351611 261.58370485 2.31784503 263.09867659 2.31578636 264.61364937 C2.31248127 266.675665 2.29705257 268.73723773 2.2784729 270.79916382 C2.27017676 272.53305642 2.27017676 272.53305642 2.26171303 274.30197716 C2 277 2 277 0 279 C0 226.86 0 174.72 0 121 C-18.15 121 -36.3 121 -55 121 C-55 100.21 -55 79.42 -55 58 C-36.85 58 -18.7 58 0 58 C0 38.86 0 19.72 0 0 Z " fill="#BBE6FE" transform="translate(331,310)"/>
<path d="M0 0 C18.15 0 36.3 0 55 0 C55 52.14 55 104.28 55 158 C34.4884375 158.061875 34.4884375 158.061875 13.5625 158.125 C7.16919312 158.15231201 7.16919312 158.15231201 0.64672852 158.18017578 C-66.26141691 158.35047301 -66.26141691 158.35047301 -78 148 C-76.54077307 148.11409593 -75.08259402 148.24165544 -73.625 148.375 C-72.81289062 148.44460938 -72.00078125 148.51421875 -71.1640625 148.5859375 C-69 149 -69 149 -67 151 C-65.06008596 151.42137285 -65.06008596 151.42137285 -62.9375 151.5625 C-59 152 -59 152 -58 153 C-56.02490127 153.2094361 -54.04428318 153.36803822 -52.0625 153.5 C-46.22008253 153.88995873 -46.22008253 153.88995873 -44 155 C-40.91890526 155.1230724 -37.85908904 155.18579739 -34.77685547 155.20532227 C-33.8052202 155.21535499 -32.83358494 155.22538771 -31.83250618 155.23572445 C-28.67742446 155.26718616 -25.52233022 155.2919122 -22.3671875 155.31640625 C-20.42325422 155.33480262 -18.47932505 155.35363891 -16.53540039 155.3729248 C-9.31531564 155.44145644 -2.09515194 155.50145538 5.125 155.5625 C21.25375 155.706875 37.3825 155.85125 54 156 C54 104.85 54 53.7 54 1 C36.18 1 18.36 1 0 1 C0 0.67 0 0.34 0 0 Z " fill="#2380DD" transform="translate(276,431)"/>
<path d="M0 0 C0.33 0 0.66 0 1 0 C1 90.09 1 180.18 1 273 C0.67 273 0.34 273 0 273 C-0.9173287 266.75214862 -1.15412774 260.67375331 -1.16494751 254.36390686 C-1.17059105 253.31647118 -1.1762346 252.26903549 -1.18204916 251.18985933 C-1.19969667 247.69306509 -1.21044718 244.19628464 -1.22119141 240.69946289 C-1.23241249 238.18762025 -1.24404497 235.67577941 -1.25605774 233.16394043 C-1.2840875 227.05927475 -1.30758544 220.95460633 -1.3288355 214.84991372 C-1.34618879 209.89110444 -1.36542467 204.93230578 -1.38599777 199.97350883 C-1.39039066 198.91399212 -1.39039066 198.91399212 -1.3948723 197.83307103 C-1.4008294 196.39813402 -1.40679061 194.96319702 -1.41275589 193.52826004 C-1.46840454 180.08793465 -1.51809798 166.64759228 -1.5657609 153.20723652 C-1.60683098 141.66604918 -1.6531024 130.12489212 -1.703125 118.58374023 C-1.76121903 105.17988359 -1.8160639 91.77602012 -1.86572587 78.37212938 C-1.87102404 76.94467984 -1.87632665 75.51723032 -1.88163376 74.08978081 C-1.88424359 73.3874333 -1.88685343 72.6850858 -1.88954235 71.96145504 C-1.90819508 67.00301729 -1.92919624 62.04459264 -1.9510994 57.08616829 C-1.98046236 50.42383473 -2.00454509 43.76149658 -2.02499962 37.09912872 C-2.03333956 34.64683572 -2.04341087 32.19454794 -2.05528831 29.74226952 C-2.07115124 26.41057817 -2.08090818 23.07892551 -2.08901978 19.74720764 C-2.09514145 18.76338563 -2.10126312 17.77956361 -2.10757029 16.7659288 C-2.10844594 15.88060548 -2.10932159 14.99528215 -2.11022377 14.08313084 C-2.11309918 13.31321766 -2.11597459 12.54330449 -2.11893713 11.75006062 C-2 10 -2 10 -1 9 C-0.76807135 7.48530552 -0.58784762 5.96245438 -0.4375 4.4375 C-0.35371094 3.61121094 -0.26992187 2.78492188 -0.18359375 1.93359375 C-0.12300781 1.29550781 -0.06242188 0.65742188 0 0 Z " fill="#D8FCFE" transform="translate(147,231)"/>
<path d="M0 0 C4.51939615 0.52146879 8.96374115 1.17312595 13.4375 2 C27.92404258 4.42367935 42.8223032 4.1805834 57.47265625 4.31640625 C59.37650432 4.33704293 61.28034851 4.35804078 63.18418884 4.37937927 C68.13397015 4.43390838 73.08378788 4.483615 78.03363037 4.53222656 C83.10904077 4.5829551 88.18439992 4.6383698 93.25976562 4.69335938 C103.17313306 4.80009155 113.08654546 4.90171578 123 5 C122.67 5.99 122.34 6.98 122 8 C111.74018244 7.91462158 101.48050413 7.81938971 91.22088718 7.71247292 C86.45400809 7.66308717 81.68714527 7.61676638 76.92016602 7.578125 C15.82204323 7.0760422 15.82204323 7.0760422 1 2 C0.67 1.34 0.34 0.68 0 0 Z " fill="#E2FBFE" transform="translate(208,584)"/>
<path d="M0 0 C0.73364777 -0.00807175 1.46729553 -0.01614349 2.22317505 -0.02445984 C3.78140956 -0.03825089 5.33967365 -0.04899517 6.89794922 -0.05688477 C8.43905972 -0.06820474 9.98013771 -0.0883224 11.52099609 -0.1184082 C25.77066308 -0.39535613 37.95881053 1.83428092 52.3828125 4.23828125 C52.3828125 21.72828125 52.3828125 39.21828125 52.3828125 57.23828125 C35.0078125 57.48828125 35.0078125 57.48828125 29.58837891 57.53613281 C15.88400692 57.764235 7.20334672 60.41774703 -2.6171875 70.23828125 C-2.1420334 65.96189431 0.26164985 64.00476633 3.3828125 61.23828125 C9.37322554 57.09107222 15.14665165 55.94823311 22.3359375 55.89453125 C23.07737 55.87990845 23.81880249 55.86528564 24.58270264 55.85021973 C27.73335162 55.78827133 30.88418344 55.74817167 34.03515625 55.70654297 C36.34396176 55.67289658 38.65234569 55.62779837 40.9609375 55.58203125 C42.0327829 55.5741156 42.0327829 55.5741156 43.12628174 55.56604004 C47.20495696 55.59905048 47.20495696 55.59905048 50.3828125 53.23828125 C50.71316078 51.09775623 50.71316078 51.09775623 50.70166016 48.60498047 C50.72152985 47.64413544 50.74139954 46.68329041 50.76187134 45.69332886 C50.77342255 44.65371002 50.78497375 43.61409119 50.796875 42.54296875 C50.81624115 41.48038849 50.8356073 40.41780823 50.8555603 39.32302856 C50.91547334 35.91986182 50.96178848 32.51666147 51.0078125 29.11328125 C51.04598147 26.80988085 51.08503255 24.50649489 51.125 22.203125 C51.22118437 16.54830497 51.30619731 10.89339842 51.3828125 5.23828125 C50.15304687 5.18929687 48.92328125 5.1403125 47.65625 5.08984375 C46.02341684 5.01477096 44.39060538 4.9392251 42.7578125 4.86328125 C41.54544922 4.816875 41.54544922 4.816875 40.30859375 4.76953125 C36.75093919 4.59598713 33.78259279 4.37563429 30.39404297 3.21142578 C26.17651591 1.84844031 22.23087825 1.99048004 17.828125 2.04296875 C16.47580276 2.04721359 16.47580276 2.04721359 15.09616089 2.05154419 C12.23323974 2.06268686 9.37063816 2.08778045 6.5078125 2.11328125 C4.55990037 2.1233187 2.61198331 2.13244321 0.6640625 2.140625 C-4.0964762 2.16260682 -8.85677777 2.19709575 -13.6171875 2.23828125 C-13.6171875 1.90828125 -13.6171875 1.57828125 -13.6171875 1.23828125 C-9.06301136 0.36295256 -4.62558231 0.05015988 0 0 Z " fill="#CCF1FE" transform="translate(407.6171875,236.76171875)"/>
<path d="M0 0 C1.98 0 3.96 0 6 0 C2.62345207 2.85055303 -1.03920302 4.44041149 -5.125 6 C-5.71925781 6.2475 -6.31351563 6.495 -6.92578125 6.75 C-22.78725055 12.82864692 -40.03535996 12.41265574 -56.7265625 12.29296875 C-59.05495935 12.28735893 -61.38335979 12.2830954 -63.71176147 12.28010559 C-69.77793518 12.26876589 -75.84388617 12.2393949 -81.90997314 12.20599365 C-88.1248473 12.17505559 -94.33975819 12.16155001 -100.5546875 12.14648438 C-112.70322173 12.11451268 -124.85159219 12.06345131 -137 12 C-137 11.67 -137 11.34 -137 11 C-135.7015213 10.98969254 -134.4030426 10.97938507 -133.06521606 10.96876526 C-120.85138991 10.87117311 -108.63761633 10.76845273 -96.42387581 10.66066074 C-90.14409292 10.60540492 -83.86430539 10.55198068 -77.58447266 10.50268555 C-71.52850046 10.45508122 -65.47258633 10.40273988 -59.4166832 10.34705925 C-57.10174879 10.32661785 -54.78679846 10.30790778 -52.47183609 10.29092598 C-49.23914049 10.26692147 -46.00655538 10.23686152 -42.77392578 10.20532227 C-41.80863953 10.1995668 -40.84335327 10.19381134 -39.84881592 10.18788147 C-38.97099457 10.17809265 -38.09317322 10.16830383 -37.18875122 10.15821838 C-36.42366304 10.15176583 -35.65857487 10.14531328 -34.8703022 10.1386652 C-32.90791549 10.11223179 -32.90791549 10.11223179 -31 9 C-28.44122107 8.68879716 -25.88148388 8.49035334 -23.3125 8.28125 C-20.97731545 8.12863953 -20.97731545 8.12863953 -19 7 C-17.00039988 6.960008 -14.99952758 6.95653201 -13 7 C-13 5.68 -13 4.36 -13 3 C-10.525 2.505 -10.525 2.505 -8 2 C-8 2.66 -8 3.32 -8 4 C-5.64828869 3.40138258 -3.3140622 2.73075648 -1 2 C-0.67 1.34 -0.34 0.68 0 0 Z " fill="#147FE9" transform="translate(538,576)"/>
<path d="M0 0 C0.33 0.66 0.66 1.32 1 2 C0.5875 2.680625 0.175 3.36125 -0.25 4.0625 C-5.47769754 12.83756372 -5.66552797 22.03979275 -6 32 C-6.04366699 33.24104492 -6.08733398 34.48208984 -6.13232422 35.76074219 C-6.44916034 44.83982105 -6.72601553 53.91937184 -7 63 C12.14 63 31.28 63 51 63 C51 63.33 51 63.66 51 64 C31.2 64 11.4 64 -9 64 C-9.0825 57.73 -9.165 51.46 -9.25 45 C-9.28641602 43.05738281 -9.32283203 41.11476563 -9.36035156 39.11328125 C-9.51095145 25.24421107 -8.61928366 11.49237821 0 0 Z " fill="#1279E2" transform="translate(407,304)"/>
<path d="M0 0 C0.33 0 0.66 0 1 0 C0.88276299 2.37559202 0.75620624 4.75016709 0.625 7.125 C0.57859375 8.09373047 0.57859375 8.09373047 0.53125 9.08203125 C0.12557068 16.18141943 -0.9807382 22.86516741 -2 30 C-18.83 30 -35.66 30 -53 30 C-52.67 29.34 -52.34 28.68 -52 28 C-36.49 28 -20.98 28 -5 28 C-4.67 26.35 -4.34 24.7 -4 23 C-3.67 22.34 -3.34 21.68 -3 21 C-2.81807896 19.14902563 -2.67866452 17.29376162 -2.5625 15.4375 C-2.16405025 10.10984123 -1.2945106 5.1780424 0 0 Z " fill="#C0E8FE" transform="translate(452,401)"/>
<path d="M0 0 C1.37647324 2.75294648 0.69037144 4.25493622 0.08837891 7.25878906 C-1.13238815 14.15061709 -1.34718646 20.87289899 -1.4140625 27.859375 C-1.43342865 29.12976624 -1.4527948 30.40015747 -1.4727478 31.70904541 C-1.52196422 35.04287376 -1.56340936 38.37660419 -1.60089111 41.71057129 C-1.64131422 45.13005885 -1.69212992 48.54939215 -1.7421875 51.96875 C-1.83919022 58.64577041 -1.91919174 65.32268591 -2 72 C-20.15 72 -38.3 72 -57 72 C-57 71.67 -57 71.34 -57 71 C-39.18 71 -21.36 71 -3 71 C-3.2165625 61.6878125 -3.2165625 61.6878125 -3.4375 52.1875 C-3.48060303 50.25156982 -3.52370605 48.31563965 -3.56811523 46.32104492 C-3.83596481 34.72826478 -3.83596481 34.72826478 -4.89868164 23.18481445 C-5.0171463 20.63025966 -4.57860229 18.48563579 -4 16 C-3.7628125 14.76765625 -3.525625 13.5353125 -3.28125 12.265625 C-3.02090235 10.92706991 -2.76048435 9.5885285 -2.5 8.25 C-2.36980469 7.56550781 -2.23960937 6.88101562 -2.10546875 6.17578125 C-1.11295413 1.11295413 -1.11295413 1.11295413 0 0 Z " fill="#1677D7" transform="translate(333,296)"/>
<path d="M0 0 C1.02871719 -0.00300613 1.02871719 -0.00300613 2.07821655 -0.006073 C11.73278406 -0.01297264 21.0051918 0.56096349 30.48046875 2.515625 C35.00329064 3.44287747 39.46522557 3.87925206 44.0625 4.25 C44.0625 4.91 44.0625 5.57 44.0625 6.25 C42.31201008 6.13205919 40.5621282 6.00510056 38.8125 5.875 C37.35070312 5.77058594 37.35070312 5.77058594 35.859375 5.6640625 C32.75670023 5.32570496 29.82326119 4.81741007 26.765625 4.2265625 C19.32321731 2.95841692 11.96295057 2.9487879 4.43554688 2.98925781 C2.06614603 2.9999835 -0.30249695 2.98930109 -2.671875 2.9765625 C-11.28598009 2.96981586 -19.47554472 3.42902041 -27.9375 5.25 C-24.67065142 1.62590353 -22.6712483 0.6926829 -17.72998047 0.34960938 C-11.81891879 0.13875843 -5.91490335 0.00842061 0 0 Z " fill="#2080E1" transform="translate(415.9375,234.75)"/>
<path d="M0 0 C16.48683139 -0.88322311 32.51113507 4.51037136 47 12 C44.21176345 13.0326802 43.1322726 13.04509293 40.25 12.0625 C39.5075 11.711875 38.765 11.36125 38 11 C38 10.34 38 9.68 38 9 C37.38511719 8.95101562 36.77023437 8.90203125 36.13671875 8.8515625 C35.32847656 8.77679688 34.52023437 8.70203125 33.6875 8.625 C32.88699219 8.55539063 32.08648438 8.48578125 31.26171875 8.4140625 C29 8 29 8 26 6 C23.67085177 5.63858045 21.33746522 5.30300475 19 5 C18.67 4.67 18.34 4.34 18 4 C15.92382596 3.6246465 13.83843889 3.2996863 11.75 3 C7.80664062 2.42901584 3.89953374 1.82095447 0 1 C0 0.67 0 0.34 0 0 Z " fill="#1E81DF" transform="translate(499,148)"/>
<path d="M0 0 C0.33 0 0.66 0 1 0 C1.05425013 2.87525669 1.09379277 5.74947646 1.125 8.625 C1.14175781 9.43324219 1.15851563 10.24148438 1.17578125 11.07421875 C1.18544922 12.26337891 1.18544922 12.26337891 1.1953125 13.4765625 C1.21102295 14.5605835 1.21102295 14.5605835 1.22705078 15.66650391 C1 18 1 18 -1 24 C-17.83 24 -34.66 24 -52 24 C-52.33 24.66 -52.66 25.32 -53 26 C-53 25.01 -53 24.02 -53 23 C-36.17 23 -19.34 23 -2 23 C-1.67 18.38 -1.34 13.76 -1 9 C-0.68583016 5.99793264 -0.36167257 2.99671555 0 0 Z " fill="#1878DB" transform="translate(452,408)"/>
<path d="M0 0 C1.32 0.66 2.64 1.32 4 2 C3.34 3.32 2.68 4.64 2 6 C2.70125 5.649375 3.4025 5.29875 4.125 4.9375 C7.50268586 3.8360807 9.58080593 4.20483859 13 5 C13 5.99 13 6.98 13 8 C12.01 8.33 11.02 8.66 10 9 C11.40929697 12.47132095 12.90605083 13.88093274 16.125 15.75 C16.84945312 16.17796875 17.57390625 16.6059375 18.3203125 17.046875 C18.87460938 17.36140625 19.42890625 17.6759375 20 18 C19.34 18.33 18.68 18.66 18 19 C10.54813776 15.1319521 1.54475334 9.92057324 -2 2 C-1.34 2 -0.68 2 0 2 C0 1.34 0 0.68 0 0 Z " fill="#1585EC" transform="translate(174,558)"/>
<path d="M0 0 C0.33 0.66 0.66 1.32 1 2 C0.5875 2.680625 0.175 3.36125 -0.25 4.0625 C-7.76319113 16.67392796 -7.36400293 31.99170649 -7.625 46.1875 C-7.66326446 47.91993969 -7.70232081 49.65236207 -7.7421875 51.38476562 C-7.8372517 55.58970005 -7.92161111 59.79472302 -8 64 C-8.33 64 -8.66 64 -9 64 C-9.10035245 58.59640665 -9.17215336 53.19337871 -9.21972656 47.7890625 C-9.23959897 45.95823699 -9.26670663 44.12747282 -9.30175781 42.296875 C-9.57926991 27.40916692 -9.31222859 12.41630478 0 0 Z " fill="#4194EB" transform="translate(407,304)"/>
<path d="M0 0 C1.32 0.66 2.64 1.32 4 2 C0.29269187 7.350474 -3.56345924 12.30091041 -9 16 C-9.66 16 -10.32 16 -11 16 C-10.76083941 9.90140505 -10.76083941 9.90140505 -8.66796875 7.421875 C-4.62661638 4 -4.62661638 4 -2 4 C-1.34 2.68 -0.68 1.36 0 0 Z " fill="#0980F0" transform="translate(564,554)"/>
<path d="M0 0 C1.49609375 1.21484375 1.49609375 1.21484375 3 3 C3.22265625 5.19140625 3.22265625 5.19140625 3.0625 7.5625 C2.87088561 9.88721105 2.87088561 9.88721105 3 12 C3.66 12.66 4.32 13.32 5 14 C5.39764263 15.98821313 5.73775349 17.98944339 6 20 C6.99 20 7.98 20 9 20 C9.12375 20.804375 9.2475 21.60875 9.375 22.4375 C9.58125 23.283125 9.7875 24.12875 10 25 C10.66 25.33 11.32 25.66 12 26 C12.66666667 27.33333333 13.33333333 28.66666667 14 30 C14.66 30.33 15.32 30.66 16 31 C15.67 31.99 15.34 32.98 15 34 C6.16909528 25.36227132 0.31807352 13.82063692 -3 2 C-2.01 1.34 -1.02 0.68 0 0 Z " fill="#2182E3" transform="translate(155,525)"/>
<path d="M0 0 C1.19221916 0.00212242 1.19221916 0.00212242 2.40852356 0.00428772 C4.9455645 0.00988247 7.482517 0.02243397 10.01953125 0.03515625 C11.7402331 0.04017193 13.46093633 0.04473472 15.18164062 0.04882812 C19.39847155 0.05985018 23.61523641 0.07711119 27.83203125 0.09765625 C27.83203125 0.42765625 27.83203125 0.75765625 27.83203125 1.09765625 C26.37180542 1.11953003 26.37180542 1.11953003 24.88208008 1.1418457 C21.25687649 1.19998921 17.63228365 1.27722002 14.00756836 1.36010742 C12.44126324 1.39328157 10.87484074 1.42133683 9.30834961 1.4440918 C7.05141362 1.47777741 4.79554599 1.53009674 2.5390625 1.5859375 C1.84303421 1.59232742 1.14700592 1.59871735 0.42988586 1.6053009 C-3.97474814 1.73733949 -6.54812842 2.64822698 -10.16796875 5.09765625 C-12.16585313 5.44344393 -14.16556326 5.77909174 -16.16796875 6.09765625 C-16.49796875 6.75765625 -16.82796875 7.41765625 -17.16796875 8.09765625 C-19.48203095 8.82841273 -21.81625744 9.49903883 -24.16796875 10.09765625 C-17.47999286 2.57368337 -9.95175728 -0.06653589 0 0 Z " fill="#3086EB" transform="translate(432.16796875,293.90234375)"/>
<path d="M0 0 C1.45922693 0.11409593 2.91740598 0.24165544 4.375 0.375 C5.59316406 0.47941406 5.59316406 0.47941406 6.8359375 0.5859375 C9 1 9 1 11 3 C12.93991404 3.42137285 12.93991404 3.42137285 15.0625 3.5625 C19 4 19 4 20 5 C21.82958082 5.18711622 23.66438539 5.32393293 25.5 5.4375 C30.85113973 5.83435486 35.79963324 6.69990831 41 8 C41 8.33 41 8.66 41 9 C27.91690452 9.74839741 14.06874247 7.15740379 2 2 C1.34 1.34 0.68 0.68 0 0 Z " fill="#288AE6" transform="translate(198,579)"/>
<path d="M0 0 C0.33 0 0.66 0 1 0 C0.86185777 3.9794733 0.71320326 7.95848415 0.5625 11.9375 C0.52318359 13.07380859 0.48386719 14.21011719 0.44335938 15.38085938 C0.40146484 16.46044922 0.35957031 17.54003906 0.31640625 18.65234375 C0.27974854 19.65257568 0.24309082 20.65280762 0.20532227 21.68334961 C0 24 0 24 -1 25 C-1.23427778 27.01594582 -1.41336124 29.038474 -1.5625 31.0625 C-1.64628906 32.16722656 -1.73007812 33.27195312 -1.81640625 34.41015625 C-1.87699219 35.26480469 -1.93757813 36.11945313 -2 37 C-2.66 37 -3.32 37 -4 37 C-4.27908417 28.98505154 -3.19838511 21.35250975 -2 13.4375 C-1.80921875 12.14263672 -1.6184375 10.84777344 -1.421875 9.51367188 C-0.95366479 6.34154771 -0.47956527 3.17042387 0 0 Z " fill="#2786E6" transform="translate(457,371)"/>
<path d="M0 0 C1.73056641 0.00966797 1.73056641 0.00966797 3.49609375 0.01953125 C4.68589844 0.03628906 5.87570312 0.05304688 7.1015625 0.0703125 C8.31457031 0.07933594 9.52757812 0.08835937 10.77734375 0.09765625 C13.76062023 0.12114662 16.74348844 0.15399568 19.7265625 0.1953125 C19.7265625 0.5253125 19.7265625 0.8553125 19.7265625 1.1953125 C19.05189941 1.2046582 18.37723633 1.21400391 17.68212891 1.22363281 C14.571249 1.27792019 11.46178021 1.36144965 8.3515625 1.4453125 C6.76021484 1.46658203 6.76021484 1.46658203 5.13671875 1.48828125 C-7.05971193 1.86240489 -14.78639702 5.70827202 -23.2734375 14.1953125 C-22.7982834 9.91892556 -20.39460015 7.96179758 -17.2734375 5.1953125 C-11.82274081 1.42175325 -6.60671276 -0.065413 0 0 Z " fill="#DEFAFF" transform="translate(428.2734375,292.8046875)"/>
<path d="M0 0 C4.3176995 1.97344635 7.58798665 4.14827286 11.0625 7.375 C11.9184375 8.16777344 12.774375 8.96054688 13.65625 9.77734375 C14.4296875 10.51082031 15.203125 11.24429688 16 12 C16.85078125 12.80630859 16.85078125 12.80630859 17.71875 13.62890625 C19.47928598 15.34338169 20.89375403 16.78750806 22 19 C21.01 19 20.02 19 19 19 C19 18.34 19 17.68 19 17 C18.34 17 17.68 17 17 17 C17 16.34 17 15.68 17 15 C16.34 15 15.68 15 15 15 C14.566875 14.54625 14.13375 14.0925 13.6875 13.625 C11.64371183 11.65690769 9.65469676 10.93273129 7 10 C7 9.01 7 8.02 7 7 C4.46283326 4.73712156 1.82859542 2.88573028 -1 1 C-0.67 0.67 -0.34 0.34 0 0 Z " fill="#1B83E9" transform="translate(546,161)"/>
<path d="M0 0 C1.19947266 0.05220703 2.39894531 0.10441406 3.63476562 0.15820312 C6.56934343 0.28681012 9.50348521 0.42172092 12.4375 0.5625 C12.4375 0.8925 12.4375 1.2225 12.4375 1.5625 C11.30489746 1.592229 11.30489746 1.592229 10.14941406 1.62255859 C6.66181407 1.71899239 3.17471903 1.82818279 -0.3125 1.9375 C-1.49972656 1.9684375 -2.68695313 1.999375 -3.91015625 2.03125 C-11.61135704 2.28374839 -18.99970449 3.0829738 -26.5625 4.5625 C-23.2916486 0.92786699 -21.23741462 -0.03365916 -16.27783203 -0.38232422 C-10.84206106 -0.49277955 -5.4287181 -0.2613716 0 0 Z " fill="#3790EC" transform="translate(414.5625,235.4375)"/>
<path d="M0 0 C2.0625 0.4375 2.0625 0.4375 4 1 C3.14277344 1.44730469 2.28554688 1.89460937 1.40234375 2.35546875 C-4.68362346 5.57341534 -10.52431468 8.79772987 -16 13 C-15.67 11.35 -15.34 9.7 -15 8 C-13.35 7.67 -11.7 7.34 -10 7 C-10 5.68 -10 4.36 -10 3 C-9.04287109 2.80083984 -9.04287109 2.80083984 -8.06640625 2.59765625 C-7.24011719 2.42105469 -6.41382813 2.24445313 -5.5625 2.0625 C-4.32693359 1.80146484 -4.32693359 1.80146484 -3.06640625 1.53515625 C-1.02338796 1.19247006 -1.02338796 1.19247006 0 0 Z " fill="#1E80EB" transform="translate(372,243)"/>
<path d="M0 0 C2 3 2 3 1.78515625 5.0234375 C-0.529257 12.55466333 -4.10273585 19.18779581 -8 26 C-9.125 22.25 -9.125 22.25 -8 20 C-7.34 20 -6.68 20 -6 20 C-5.87882813 19.38511719 -5.75765625 18.77023437 -5.6328125 18.13671875 C-5.46523438 17.32847656 -5.29765625 16.52023437 -5.125 15.6875 C-4.96257813 14.88699219 -4.80015625 14.08648438 -4.6328125 13.26171875 C-4 11 -4 11 -2 8 C-1.33841957 5.95415921 -1.33841957 5.95415921 -0.875 3.8125 C-0.441875 1.9253125 -0.441875 1.9253125 0 0 Z " fill="#1B82E4" transform="translate(581,525)"/>
<path d="M0 0 C0.33 0 0.66 0 1 0 C4.44419134 17.85649203 4.44419134 17.85649203 4 26 C3.67 26 3.34 26 3 26 C3 24.35 3 22.7 3 21 C2.34 21 1.68 21 1 21 C-0.10087193 13.98194143 -0.09733092 7.09434233 0 0 Z " fill="#2588E6" transform="translate(584,211)"/>
<path d="M0 0 C0.33 0 0.66 0 1 0 C0.65568432 10.02077369 -0.0404125 19.33945967 -3 29 C-3.33 29 -3.66 29 -4 29 C-4.12529833 22.48448687 -4.12529833 22.48448687 -3.53125 20.1875 C-2.81072268 17.22062281 -2.65054249 14.2934641 -2.4375 11.25 C-2.35371094 10.07953125 -2.26992188 8.9090625 -2.18359375 7.703125 C-2.12300781 6.81109375 -2.06242188 5.9190625 -2 5 C-1.34 5 -0.68 5 0 5 C0 3.35 0 1.7 0 0 Z " fill="#2387E3" transform="translate(587,499)"/>
<path d="M0 0 C0 0.66 0 1.32 0 2 C-4.35296911 4.21452021 -8.08004634 4.07786638 -12.8125 3.625 C-13.85180664 3.53992188 -13.85180664 3.53992188 -14.91210938 3.453125 C-16.60898446 3.31269396 -18.30465248 3.15780593 -20 3 C-13.76847674 -0.39149275 -6.92388984 -0.12364089 0 0 Z " fill="#1F87EA" transform="translate(236,148)"/>
<path d="M0 0 C3.25524265 3.02272532 5.61820737 6.25718301 8 10 C5 10 2 10 -1 10 C-2.23076923 4.58461538 -2.23076923 4.58461538 -1.0625 1.625 C-0.5365625 0.820625 -0.5365625 0.820625 0 0 Z " fill="#F2FBFC" transform="translate(162,549)"/>
<path d="M0 0 C0.33 0.66 0.66 1.32 1 2 C-0.71871414 7.15614242 -3.31096778 11.14083401 -8 14 C-10.8125 14.75 -10.8125 14.75 -13 15 C-11.625 13 -11.625 13 -10 11 C-9.34 11 -8.68 11 -8 11 C-7.73445312 10.41734375 -7.46890625 9.8346875 -7.1953125 9.234375 C-5.96697004 6.93825772 -4.59685061 5.19643982 -2.875 3.25 C-2.33617187 2.63640625 -1.79734375 2.0228125 -1.2421875 1.390625 C-0.62730469 0.70226562 -0.62730469 0.70226562 0 0 Z " fill="#CCEDFE" transform="translate(570,553)"/>
<path d="M0 0 C1.28954834 2.57909669 0.88788027 3.88564976 0.4765625 6.7265625 C0.3425 7.67660156 0.2084375 8.62664062 0.0703125 9.60546875 C-0.07664062 10.60191406 -0.22359375 11.59835937 -0.375 12.625 C-0.6540075 14.57546913 -0.93265921 16.5259892 -1.2109375 18.4765625 C-1.3459668 19.41145508 -1.48099609 20.34634766 -1.62011719 21.30957031 C-2.12261758 24.86840987 -2.56777187 28.43199915 -3 32 C-3.33 32 -3.66 32 -4 32 C-4.19672365 30.27185839 -4.38196799 28.54240803 -4.5625 26.8125 C-4.66691406 25.84957031 -4.77132813 24.88664062 -4.87890625 23.89453125 C-5.00039631 20.99052693 -4.6677717 18.81808056 -4 16 C-3.7628125 14.76765625 -3.525625 13.5353125 -3.28125 12.265625 C-3.02090235 10.92706991 -2.76048435 9.5885285 -2.5 8.25 C-2.30470703 7.22326172 -2.30470703 7.22326172 -2.10546875 6.17578125 C-1.11295413 1.11295413 -1.11295413 1.11295413 0 0 Z " fill="#1280E8" transform="translate(333,296)"/>
<path d="M0 0 C-1.65 0.33 -3.3 0.66 -5 1 C-5 2.32 -5 3.64 -5 5 C-6.65 5.33 -8.3 5.66 -10 6 C-10 5.34 -10 4.68 -10 4 C-11.98 4 -13.96 4 -16 4 C-13.71185277 1.71185277 -12.19248378 1.24548839 -9.125 0.3125 C-8.26132813 0.04050781 -7.39765625 -0.23148438 -6.5078125 -0.51171875 C-3.91305068 -1.01692938 -2.469215 -0.85561171 0 0 Z " fill="#1B83E9" transform="translate(216,152)"/>
<path d="M0 0 C0.8125 1.6875 0.8125 1.6875 1 4 C-1.1875 6.5 -1.1875 6.5 -4 9 C-5.1446875 10.1446875 -5.1446875 10.1446875 -6.3125 11.3125 C-6.869375 11.869375 -7.42625 12.42625 -8 13 C-8.66 12.67 -9.32 12.34 -10 12 C-3.84965831 3.55353075 -3.84965831 3.55353075 0 0 Z " fill="#DAF5FE" transform="translate(356,256)"/>
<path d="M0 0 C0.66 0 1.32 0 2 0 C0.02873829 4.64960643 -3.44350612 7.78077419 -6.90625 11.3671875 C-9.14549568 14.18295539 -10.07416439 16.54824333 -11 20 C-11.99 19.34 -12.98 18.68 -14 18 C-4.96724891 5.3220524 -4.96724891 5.3220524 0 0 Z " fill="#2484E2" transform="translate(174,172)"/>
<path d="M0 0 C0.33 0 0.66 0 1 0 C2.05987432 7.32650983 3.11796547 14.64971227 4 22 C3.34 22 2.68 22 2 22 C0.00881759 17.02988327 -0.24845695 12.87666865 -0.125 7.625 C-0.11597656 6.88894531 -0.10695312 6.15289063 -0.09765625 5.39453125 C-0.07430144 3.5962112 -0.03843836 1.79806089 0 0 Z " fill="#C9EFFE" transform="translate(148,506)"/>
<path d="M0 0 C0.33 0 0.66 0 1 0 C0.88519969 2.85490236 0.75847036 5.7084588 0.625 8.5625 C0.5940625 9.36236328 0.563125 10.16222656 0.53125 10.98632812 C0.28743436 15.96423083 -0.43631388 20.26444649 -2 25 C-2.33 25 -2.66 25 -3 25 C-2.60271115 16.47919963 -2.21772491 8.27950633 0 0 Z " fill="#2D8BE4" transform="translate(151,211)"/>
<path d="M0 0 C8.60764545 -0.46112386 16.61479306 1.27151563 25 3 C25 3.33 25 3.66 25 4 C22.33259077 3.88481642 19.66652759 3.75810454 17 3.625 C16.25621094 3.5940625 15.51242187 3.563125 14.74609375 3.53125 C9.59432517 3.26246207 4.97007244 2.38936116 0 1 C0 0.67 0 0.34 0 0 Z " fill="#2C8BE4" transform="translate(499,148)"/>
<path d="M0 0 C0.33 0 0.66 0 1 0 C1.08126109 2.72977064 1.14061663 5.4571017 1.1875 8.1875 C1.22520508 9.34088867 1.22520508 9.34088867 1.26367188 10.51757812 C1.32421425 15.2197028 0.96375211 18.11834041 -2 22 C-3.14617548 18.33546711 -2.57738289 15.99501982 -1.546875 12.3046875 C-0.58735033 8.26097638 -0.32205149 4.13581914 0 0 Z " fill="#CCF1FE" transform="translate(587,506)"/>
<path d="M0 0 C1.51953125 1.20703125 1.51953125 1.20703125 3 3 C3.07421875 5.26171875 3.07421875 5.26171875 2.6875 7.6875 C2.50767578 8.89986328 2.50767578 8.89986328 2.32421875 10.13671875 C2.21722656 10.75160156 2.11023438 11.36648438 2 12 C0 11 0 11 -0.8515625 8.93359375 C-1.10679687 8.10988281 -1.36203125 7.28617188 -1.625 6.4375 C-1.88539063 5.61121094 -2.14578125 4.78492188 -2.4140625 3.93359375 C-2.60742188 3.29550781 -2.80078125 2.65742187 -3 2 C-2.01 1.34 -1.02 0.68 0 0 Z " fill="#1280EC" transform="translate(155,525)"/>
<path d="M0 0 C-0.33 0.99 -0.66 1.98 -1 3 C-2.98 3.33 -4.96 3.66 -7 4 C-7 4.99 -7 5.98 -7 7 C-8.98 7.33 -10.96 7.66 -13 8 C-13 8.66 -13 9.32 -13 10 C-14.65 10.33 -16.3 10.66 -18 11 C-13.90793979 6.20241216 -6.54758015 0 0 0 Z " fill="#2383E3" transform="translate(198,157)"/>
<path d="M0 0 C2.58445773 -0.1081866 5.16437352 -0.18737237 7.75 -0.25 C8.47960937 -0.28351563 9.20921875 -0.31703125 9.9609375 -0.3515625 C13.67144375 -0.41902625 15.57156961 -0.34327652 18.515625 2.015625 C19.00546875 2.67046875 19.4953125 3.3253125 20 4 C13.29221378 3.22602467 6.65425699 2.14231412 0 1 C0 0.67 0 0.34 0 0 Z " fill="#D2F4FE" transform="translate(508,148)"/>
<path d="M0 0 C0.33 0 0.66 0 1 0 C1.04254356 1.99954746 1.04080783 4.00041636 1 6 C0.67 6.33 0.34 6.66 0 7 C-0.31942137 8.43158852 -0.60596972 9.8705921 -0.875 11.3125 C-1.62408437 14.87632566 -2.4231836 17.30605559 -5 20 C-4.52432875 12.74601342 -2.70533406 6.73187777 0 0 Z " fill="#C2E9FE" transform="translate(338,282)"/>
<path d="M0 0 C0.66 0.66 1.32 1.32 2 2 C1.66226562 2.73605469 1.32453125 3.47210938 0.9765625 4.23046875 C0.30753906 5.69419922 0.30753906 5.69419922 -0.375 7.1875 C-0.81585938 8.15042969 -1.25671875 9.11335938 -1.7109375 10.10546875 C-2.87321851 12.71531792 -3.95924781 15.33975959 -5 18 C-5.33 18 -5.66 18 -6 18 C-6 16.02 -6 14.04 -6 12 C-5.34 12 -4.68 12 -4 12 C-4.0928125 10.6078125 -4.0928125 10.6078125 -4.1875 9.1875 C-4 6 -4 6 -2.5625 4.3125 C-1.7890625 3.6628125 -1.7890625 3.6628125 -1 3 C-0.67 2.01 -0.34 1.02 0 0 Z " fill="#1C7DE8" transform="translate(341,272)"/>
<path d="M0 0 C2.76276177 0.52268466 5.3260876 1.10869587 8 2 C7.67 3.32 7.34 4.64 7 6 C5.68 5.67 4.36 5.34 3 5 C3 4.34 3 3.68 3 3 C1.02 3.33 -0.96 3.66 -3 4 C-2.01 2.68 -1.02 1.36 0 0 Z " fill="#0683F4" transform="translate(179,168)"/>
<path d="M0 0 C1.01573289 3.04719867 1.0097124 3.98833004 0.44140625 7.01171875 C0.30283203 7.76904297 0.16425781 8.52636719 0.02148438 9.30664062 C-0.12998047 10.09232422 -0.28144531 10.87800781 -0.4375 11.6875 C-0.58509766 12.48478516 -0.73269531 13.28207031 -0.88476562 14.10351562 C-1.24984964 16.07025852 -1.62405289 18.03530467 -2 20 C-2.33 20 -2.66 20 -3 20 C-3.08139142 17.60347472 -3.14067009 15.20974564 -3.1875 12.8125 C-3.22520508 11.80219727 -3.22520508 11.80219727 -3.26367188 10.77148438 C-3.32923478 6.29135252 -2.66743649 3.60559001 0 0 Z " fill="#D2F5FF" transform="translate(151,208)"/>
<path d="M0 0 C1.32 0.66 2.64 1.32 4 2 C1.59078295 4.40921705 -0.94334509 5.53812156 -4 7 C-4.99 6.34 -5.98 5.68 -7 5 C-4.69 3.35 -2.38 1.7 0 0 Z " fill="#E9F8FB" transform="translate(556,568)"/>
<path d="M0 0 C-1.37912403 3.40136289 -2.62611859 4.69605565 -5.9375 6.25 C-6.62714844 6.58515625 -7.31679688 6.9203125 -8.02734375 7.265625 C-10 8 -10 8 -13 8 C-11.5433323 6.85204994 -10.08461063 5.70670581 -8.625 4.5625 C-7.40683594 3.60537109 -7.40683594 3.60537109 -6.1640625 2.62890625 C-2.67146283 0 -2.67146283 0 0 0 Z " fill="#D7F3FE" transform="translate(370,247)"/>
<path d="M0 0 C4.0474939 6.07124085 4.13454718 9.96274115 3 17 C2.67 17 2.34 17 2 17 C1.66151348 15.10507994 1.32943089 13.20901534 1 11.3125 C0.814375 10.25675781 0.62875 9.20101562 0.4375 8.11328125 C0.04931926 5.35095938 -0.08259976 2.78257957 0 0 Z " fill="#D1F4FF" transform="translate(585,211)"/>
<path d="M0 0 C-2.28176413 2.07384637 -3.44323483 2.98397191 -6.578125 3.07421875 C-7.90070312 2.88279297 -7.90070312 2.88279297 -9.25 2.6875 C-10.14203125 2.56761719 -11.0340625 2.44773437 -11.953125 2.32421875 C-12.62859375 2.21722656 -13.3040625 2.11023438 -14 2 C-14 1.67 -14 1.34 -14 1 C-12.41913952 0.63495397 -10.83516093 0.28339494 -9.25 -0.0625 C-8.36828125 -0.25972656 -7.4865625 -0.45695313 -6.578125 -0.66015625 C-4.01320972 -0.99825872 -2.42908361 -0.81158635 0 0 Z " fill="#CDEEFD" transform="translate(528,585)"/>
<path d="M0 0 C1.98 0 3.96 0 6 0 C3.10357159 2.35082212 0.34643669 3.83519406 -3.125 5.1875 C-4.42824219 5.70376953 -4.42824219 5.70376953 -5.7578125 6.23046875 C-8 7 -8 7 -10 7 C-10 6.34 -10 5.68 -10 5 C-9.36191406 4.80664062 -8.72382812 4.61328125 -8.06640625 4.4140625 C-7.24011719 4.15367187 -6.41382813 3.89328125 -5.5625 3.625 C-4.32693359 3.24214844 -4.32693359 3.24214844 -3.06640625 2.8515625 C-0.82201984 2.19117773 -0.82201984 2.19117773 0 0 Z " fill="#1E7FE0" transform="translate(538,576)"/>
<path d="M0 0 C1.32 0.66 2.64 1.32 4 2 C2.37660195 3.70884005 0.70680947 5.37446717 -1 7 C-1.66 7 -2.32 7 -3 7 C-2.67 5.35 -2.34 3.7 -2 2 C-1.34 2 -0.68 2 0 2 C0 1.34 0 0.68 0 0 Z " fill="#1582EF" transform="translate(556,563)"/>
<path d="M0 0 C1.43931117 0.45261358 2.87638999 0.91232979 4.3125 1.375 C5.11300781 1.63023437 5.91351563 1.88546875 6.73828125 2.1484375 C9 3 9 3 12 5 C7.04230204 5.29162929 3.97193147 5.12940055 0 2 C0 1.34 0 0.68 0 0 Z " fill="#D4F6FF" transform="translate(196,579)"/>
<path d="M0 0 C3.33333333 3.33333333 6.66666667 6.66666667 10 10 C8.02 9.34 6.04 8.68 4 8 C4 7.34 4 6.68 4 6 C3.01 5.67 2.02 5.34 1 5 C0.67 3.35 0.34 1.7 0 0 Z " fill="#CCF1FE" transform="translate(170,559)"/>
<path d="M0 0 C2.0625 0.4375 2.0625 0.4375 4 1 C3.06027344 1.72316406 3.06027344 1.72316406 2.1015625 2.4609375 C1.28429687 3.09257812 0.46703125 3.72421875 -0.375 4.375 C-1.18710937 5.00148438 -1.99921875 5.62796875 -2.8359375 6.2734375 C-5.04223195 7.96773494 -5.04223195 7.96773494 -7 10 C-6.52727227 5.74545047 -4.03562624 3.80795427 -1 1 C-0.67 0.67 -0.34 0.34 0 0 Z " fill="#D2F5FE" transform="translate(412,297)"/>
<path d="M0 0 C1.32 0.33 2.64 0.66 4 1 C3.34 1 2.68 1 2 1 C1.773125 1.5775 1.54625 2.155 1.3125 2.75 C-0.33038023 5.5663661 -2.39533227 7.08077114 -5 9 C-4.6875 7.0625 -4.6875 7.0625 -4 5 C-3.01 4.67 -2.02 4.34 -1 4 C-0.26676204 1.98491642 -0.26676204 1.98491642 0 0 Z " fill="#C4ECFE" transform="translate(172,171)"/>
<path d="M0 0 C0.66 0.99 1.32 1.98 2 3 C-1.625 9.875 -1.625 9.875 -5 11 C-3.55049545 7.2089881 -1.84827434 3.6125362 0 0 Z " fill="#CEEFFE" transform="translate(579,538)"/>
<path d="M0 0 C2.97 0.495 2.97 0.495 6 1 C6.33 2.65 6.66 4.3 7 6 C3.63279613 4.60667426 2.0140476 3.0210714 0 0 Z " fill="#C7EBFD" transform="translate(558,169)"/>
<path d="M0 0 C1.81325551 0.11351517 3.62563357 0.24112961 5.4375 0.375 C6.95150391 0.47941406 6.95150391 0.47941406 8.49609375 0.5859375 C9.73552734 0.79089844 9.73552734 0.79089844 11 1 C11.33 1.66 11.66 2.32 12 3 C12.99 3.66 13.98 4.32 15 5 C9.125 4.125 9.125 4.125 8 3 C6.845 2.855625 5.69 2.71125 4.5 2.5625 C3.345 2.376875 2.19 2.19125 1 2 C0.67 1.34 0.34 0.68 0 0 Z " fill="#1082F0" transform="translate(517,151)"/>
<path d="M0 0 C-1.62249941 0.83819158 -3.24808497 1.6704116 -4.875 2.5 C-6.23238281 3.19609375 -6.23238281 3.19609375 -7.6171875 3.90625 C-10 5 -10 5 -12 5 C-11 2 -11 2 -7.6875 0.25 C-4.06346006 -0.97848812 -3.3741029 -1.10235591 0 0 Z " fill="#2984E0" transform="translate(376,244)"/>
<path d="M0 0 C4.62609198 -0.3227506 7.28026121 0.15549386 11 3 C11 3.66 11 4.32 11 5 C7.27566618 3.7874262 3.62197194 2.49140021 0 1 C0 0.67 0 0.34 0 0 Z " fill="#C9EFFE" transform="translate(533,154)"/>
<path d="M0 0 C1.31223496 3.93670488 0.24296256 6.12488144 -1 10 C-1.99 10 -2.98 10 -4 10 C-2.99806563 6.20696275 -2.18975773 3.28463659 0 0 Z " fill="#EBF8F9" transform="translate(573,549)"/>
<path d="M0 0 C2.31 0.33 4.62 0.66 7 1 C7 1.66 7 2.32 7 3 C7.66 3 8.32 3 9 3 C9 3.99 9 4.98 9 6 C5.88802644 4.50164236 2.91164984 2.86022073 0 1 C0 0.67 0 0.34 0 0 Z " fill="#D6F2FD" transform="translate(546,160)"/>
<path d="M0 0 C4.875 4.75 4.875 4.75 6 7 C4.68 7 3.36 7 2 7 C1.67 6.01 1.34 5.02 1 4 C0.34 3.67 -0.32 3.34 -1 3 C-0.67 2.01 -0.34 1.02 0 0 Z " fill="#D8F1FC" transform="translate(164,552)"/>
<path d="M0 0 C0.33 0 0.66 0 1 0 C1.25 2.75 1.25 2.75 1 6 C-1 8.375 -1 8.375 -3 10 C-2.01 6.7 -1.02 3.4 0 0 Z " fill="#C6F0FE" transform="translate(583,528)"/>
<path d="M0 0 C6.52307692 -0.36923077 6.52307692 -0.36923077 8.9375 1.5 C9.288125 1.995 9.63875 2.49 10 3 C2.25 2.25 2.25 2.25 0 0 Z " fill="#2181E1" transform="translate(210,583)"/>
<path d="M0 0 C1.99097846 2.98646769 2.94124926 5.59687262 4 9 C3.01 8.67 2.02 8.34 1 8 C-0.35439668 5.29120665 -0.06501451 2.99066732 0 0 Z " fill="#C8EEFE" transform="translate(154,533)"/>
<path d="M0 0 C2.7558573 4.13378595 3.10756445 6.05203546 3 11 C2.67 9.68 2.34 8.36 2 7 C1.34 7 0.68 7 0 7 C0 4.69 0 2.38 0 0 Z " fill="#0A7FF1" transform="translate(149,501)"/>
</svg>
