<?xml version="1.0" encoding="UTF-8"?>
<svg version="1.1" xmlns="http://www.w3.org/2000/svg" width="626" height="626">
<path d="M0 0 C206.58 0 413.16 0 626 0 C626 206.58 626 413.16 626 626 C419.42 626 212.84 626 0 626 C0 419.42 0 212.84 0 0 Z " fill="#0B65C2" transform="translate(0,0)"/>
<path d="M0 0 C206.58 0 413.16 0 626 0 C626 206.58 626 413.16 626 626 C419.42 626 212.84 626 0 626 C0 419.42 0 212.84 0 0 Z M54 67 C37.59054239 86.23730104 26.87796981 112.00475455 26.87415886 137.44727516 C26.87155111 138.70721782 26.86894336 139.96716048 26.86625659 141.26528323 C26.86841833 142.65062069 26.87067497 144.035958 26.87301636 145.42129517 C26.8718635 146.90300007 26.87027486 148.38470469 26.86828911 149.86640871 C26.86411817 153.93006963 26.86617644 157.99370704 26.86927533 162.05736804 C26.87153841 166.44335765 26.8680452 170.82934322 26.86529541 175.21533203 C26.86084782 183.80605368 26.8618099 192.39676659 26.86470805 200.98748858 C26.86696692 207.97281391 26.8672725 214.95813679 26.86618423 221.94346237 C26.866031 222.93789059 26.86587777 223.93231881 26.86571989 224.95688122 C26.86540016 226.97715597 26.86507595 228.99743073 26.8647473 231.01770549 C26.86189524 249.96604504 26.86517479 268.91437975 26.87054767 287.86271851 C26.87501132 304.10688638 26.87424286 320.3510471 26.86962891 336.59521484 C26.86427119 355.46670378 26.86217425 374.33818847 26.86524117 393.20967805 C26.86555971 395.22433305 26.86587408 397.23898804 26.86618423 399.25364304 C26.86633851 400.24482856 26.86649279 401.23601408 26.86665174 402.25723553 C26.8675136 409.22780269 26.86606103 416.19836714 26.86370468 423.16893387 C26.86089301 431.67335911 26.86167357 440.17777512 26.86698543 448.68219931 C26.86960464 453.01793413 26.87065784 457.35365359 26.86733627 461.68938828 C26.86433625 465.66574198 26.8660273 469.64206624 26.87131383 473.61841731 C26.87242235 475.04978895 26.87188201 476.48116313 26.86943804 477.91253312 C26.81120694 495.56250924 26.81120694 495.56250924 30.125 512.8125 C30.34236816 513.5667627 30.55973633 514.32102539 30.78369141 515.09814453 C36.24575959 533.3037697 45.22140098 548.98391303 58 563 C58.86625 563.96164062 59.7325 564.92328125 60.625 565.9140625 C80.29748874 586.69898364 108.55031045 597.80327473 136.80886889 599.18643057 C140.67950587 599.25740909 144.54750053 599.27215883 148.41851807 599.26069641 C149.89887837 599.26372659 151.37923711 599.26762035 152.85959315 599.27228898 C156.87802393 599.28246636 160.89636448 599.28041373 164.91480231 599.27610838 C169.26805539 599.27362226 173.62128779 599.28267855 177.97453308 599.29014587 C186.48415836 599.30284308 194.993752 599.30469279 203.50338516 599.30234561 C210.42646229 599.30055663 217.3495299 599.30232448 224.2726059 599.30657005 C225.26101828 599.30716524 226.24943067 599.30776043 227.26779495 599.30837366 C229.27629878 599.30958551 231.28480261 599.31079965 233.29330644 599.31201603 C252.09549549 599.32287248 270.89766656 599.32073812 289.69985661 599.31463119 C306.86367831 599.30946422 324.02744322 599.32071505 341.19125369 599.33972941 C358.85621601 599.35914745 376.52115151 599.36735683 394.18612456 599.36360615 C404.08713765 599.36170006 413.98810242 599.36412369 423.88910675 599.37832069 C432.31847634 599.39028619 440.74776789 599.39158186 449.17713866 599.37953053 C453.46929306 599.37367778 457.76130506 599.37244127 462.05344963 599.38453293 C492.5270107 599.85299418 492.5270107 599.85299418 522 593 C522.94746094 592.64035156 523.89492188 592.28070312 524.87109375 591.91015625 C535.75211635 587.57160839 545.21953861 582.10909382 554.46875 574.953125 C556.26295257 573.56870944 558.114388 572.25707466 560 571 C560 570.34 560 569.68 560 569 C560.556875 568.79375 561.11375 568.5875 561.6875 568.375 C564.22812201 566.86435988 565.76507497 565.06141825 567.55859375 562.73046875 C569 561 569 561 571.38671875 558.671875 C597.36336786 532.11278981 599.63102674 495.00697836 599.52289867 460.14983404 C599.51373242 455.76597743 599.52787433 451.38218087 599.53881836 446.99833679 C599.55648599 438.44103399 599.55281666 429.88387253 599.5411678 421.32656448 C599.53208762 414.36453903 599.53092915 407.40255284 599.53526306 400.44052315 C599.53618246 398.94706793 599.53618246 398.94706793 599.53712043 397.42344191 C599.53839949 395.400042 599.53969635 393.37664211 599.5410108 391.35324223 C599.552382 372.43699438 599.53935714 353.52082442 599.51780933 334.60458935 C599.49993876 318.41596007 599.50304888 302.22744557 599.52148438 286.03881836 C599.54294772 267.18287333 599.55128657 248.32699633 599.53903532 229.47104079 C599.53776129 227.45591423 599.5365038 225.44078766 599.53526306 223.42566109 C599.53464596 222.43449785 599.53402886 221.44333462 599.53339306 220.42213614 C599.52995671 213.47768048 599.53573118 206.53326841 599.54518127 199.5888195 C599.55646349 191.11274951 599.55323152 182.63682746 599.5320583 174.16077416 C599.52163129 169.84614428 599.51728116 165.53175998 599.53065491 161.21713257 C599.67904662 129.56742011 599.67904662 129.56742011 591.125 99.3125 C590.77622803 98.48492187 590.42745605 97.65734375 590.06811523 96.8046875 C587.5176778 90.87882599 584.73576618 85.2772231 581 80 C580.34515625 79.06414062 579.6903125 78.12828125 579.015625 77.1640625 C569.48262352 64.01392925 559.41584575 54.04987976 546 45 C545.15953125 44.41476563 544.3190625 43.82953125 543.453125 43.2265625 C523.92055214 30.49671329 500.17720331 26.83886465 477.37615967 26.86628723 C475.89685326 26.86441676 474.41754734 26.86211512 472.9382422 26.85942191 C468.89050364 26.8533267 464.8427858 26.85343481 460.79504371 26.85461628 C456.42272104 26.85482087 452.05040492 26.84929604 447.67808533 26.84455872 C439.11838732 26.83626416 430.55869619 26.83350442 421.9989945 26.83294634 C415.03898372 26.83247062 408.07897521 26.83041309 401.11896515 26.82724571 C381.37181826 26.81844248 361.62467679 26.81382583 341.87752792 26.81457619 C340.81370054 26.81461614 339.74987317 26.8146561 338.65380859 26.81469727 C337.05611186 26.81475859 337.05611186 26.81475859 335.42613843 26.81482115 C318.16662468 26.81522754 300.90713274 26.8056587 283.6476253 26.7915589 C265.91173142 26.77718462 248.17584817 26.77028929 230.43994832 26.77115268 C220.48820273 26.77148428 210.53648002 26.76875334 200.58473969 26.75797462 C192.11146433 26.7488558 183.63822223 26.74670573 175.16494408 26.75348405 C170.84537937 26.75674224 166.5258784 26.75683131 162.20631981 26.7481308 C158.2448211 26.74023385 154.28343637 26.74172962 150.32194033 26.75041493 C148.8960112 26.75194291 147.47007343 26.75016052 146.0441545 26.74455485 C109.956667 26.61218792 78.43322761 40.30621787 54 67 Z " fill="#FEFEFE" transform="translate(0,0)"/>
<path d="M0 0 C2.16760354 0.02914631 4.33276859 0.02050341 6.50048828 0.00756836 C28.63713268 0.04030653 48.20365802 7.04824975 64.20751953 22.54858398 C77.80750213 36.26235493 84.42172343 53.72075902 84.40890503 72.85955811 C84.39829366 74.28943084 84.38738932 75.71930143 84.3762207 77.14916992 C84.37537252 78.68786604 84.3758533 80.22656337 84.37754822 81.76525879 C84.37840213 85.90502093 84.36087542 90.04451749 84.33982635 94.18421841 C84.32095771 98.52434854 84.31930113 102.86448606 84.31575012 107.20465088 C84.30645938 115.40664741 84.28188622 123.60852269 84.25170165 131.81046605 C84.21806466 141.15516849 84.20164835 150.499877 84.18661535 159.844625 C84.15533369 179.05201676 84.10035919 198.25924251 84.03564453 217.46655273 C63.24564453 217.46655273 42.45564453 217.46655273 21.03564453 217.46655273 C20.97957031 204.57334961 20.97957031 204.57334961 20.92236328 191.41967773 C20.88821624 185.2651258 20.85222097 179.1106063 20.81356716 172.9560833 C20.76380341 164.99360735 20.71832821 157.03118461 20.68920898 149.06860352 C20.6661311 142.76184475 20.63262529 136.45523923 20.58694297 130.14860225 C20.56314135 126.81367809 20.54588411 123.47904258 20.53803062 120.14402008 C20.52834569 116.40788008 20.50023261 112.67228395 20.46801758 108.9362793 C20.46945267 107.84798325 20.47088776 106.75968719 20.47236633 105.63841248 C20.32053803 93.11001639 17.54824704 80.64247587 8.92626953 71.14233398 C-0.35696042 62.48332122 -10.64123246 58.88274117 -23.33544922 59.22045898 C-35.56975592 60.36572098 -46.74636884 65.14081966 -55.17919922 74.19702148 C-63.37008383 84.61037807 -65.25837207 94.77567609 -65.28320312 107.66577148 C-65.29324875 108.86662888 -65.30329437 110.06748627 -65.31364441 111.30473328 C-65.33911886 114.57482467 -65.35604518 117.84482231 -65.36907244 121.1149826 C-65.38477457 124.54097855 -65.41154194 127.96688825 -65.43710327 131.39282227 C-65.48376633 137.87010363 -65.5205705 144.34740144 -65.55377614 150.82476425 C-65.59584892 158.92807635 -65.65118231 167.03129114 -65.70654297 175.13452148 C-65.80516477 189.57847831 -65.88382795 204.02245854 -65.96435547 218.46655273 C-87.08435547 218.46655273 -108.20435547 218.46655273 -129.96435547 218.46655273 C-129.96435547 147.18655273 -129.96435547 75.90655273 -129.96435547 2.46655273 C-108.84435547 2.46655273 -87.72435547 2.46655273 -65.96435547 2.46655273 C-65.63435547 11.70655273 -65.30435547 20.94655273 -64.96435547 30.46655273 C-61.49935547 26.50655273 -61.49935547 26.50655273 -57.96435547 22.46655273 C-52.32303663 16.46774693 -46.57132215 11.84672949 -39.27685547 8.09155273 C-38.69105713 7.78217773 -38.10525879 7.47280273 -37.50170898 7.15405273 C-25.64498707 1.43172662 -12.99595229 -0.18986159 0 0 Z " fill="#FCFDFD" transform="translate(385.96435546875,252.533447265625)"/>
<path d="M0 0 C21.12 0 42.24 0 64 0 C64 70.62 64 141.24 64 214 C42.88 214 21.76 214 0 214 C0 143.38 0 72.76 0 0 Z " fill="#FEFEFE" transform="translate(155,256)"/>
<path d="M0 0 C8.83841292 6.38742446 15.29987399 14.70911764 17.57421875 25.4921875 C18.83171221 37.14179669 17.42387505 46.74522507 10.4375 56.46484375 C4.07473464 64.07762098 -3.07090861 68.37389662 -12.42578125 71.4921875 C-25.12896278 72.31918224 -35.30482531 71.53855703 -45.55078125 63.234375 C-53.24821149 56.0821794 -58.34659363 47.09789069 -59.8359375 36.6015625 C-60.2198666 24.91676386 -56.30775478 13.79897023 -48.31640625 5.23046875 C-34.88307926 -7.2995828 -15.90682336 -9.88733304 0 0 Z " fill="#FDFEFD" transform="translate(207.42578125,152.5078125)"/>
<path d="M0 0 C1.48302004 -0.00115385 2.96603979 -0.00274314 4.44905895 -0.00472724 C8.50226276 -0.00888425 12.55544288 -0.00684634 16.60864675 -0.00374103 C20.98837209 -0.00147235 25.36809345 -0.00497383 29.74781799 -0.00772095 C38.31873855 -0.0121618 46.88965034 -0.01120969 55.46057124 -0.00830831 C62.4272665 -0.00604781 69.39395931 -0.00574456 76.36065483 -0.00683212 C77.84925675 -0.00706197 77.84925675 -0.00706197 79.36793144 -0.00729647 C81.38410752 -0.0076162 83.40028359 -0.00794041 85.41645967 -0.00826906 C104.31080237 -0.01111888 123.20514021 -0.00784455 142.09948211 -0.00246869 C158.30565794 0.00199959 174.51182662 0.00122225 190.71800232 -0.00338745 C209.54735763 -0.0087408 228.37670868 -0.01084496 247.20606464 -0.00777519 C249.2144225 -0.00745664 251.22278037 -0.00714227 253.23113823 -0.00683212 C254.71328718 -0.00660071 254.71328718 -0.00660071 256.22537853 -0.00636462 C263.18283155 -0.00550181 270.14028186 -0.00695727 277.09773445 -0.00931168 C285.57768083 -0.01211828 294.05761795 -0.01135319 302.53756327 -0.00603093 C306.86269703 -0.00340567 311.18781536 -0.00236898 315.51294899 -0.00568008 C319.47478717 -0.00866717 323.43659567 -0.00701009 327.39843117 -0.00170253 C328.82896904 -0.00058865 330.25950943 -0.00114663 331.69004566 -0.00357832 C338.95407572 -0.01497561 346.027947 0.13852653 353.22898865 1.12698364 C350.51095706 3.84501523 349.07789413 3.37995073 345.27201366 3.38590336 C343.99415908 3.39275215 342.7163045 3.39960095 341.39972705 3.40665728 C339.96823609 3.40418913 338.53674545 3.40153925 337.10525513 3.39872742 C335.59486482 3.40301057 334.08447679 3.40817247 332.57409221 3.41414207 C328.40791208 3.4280621 324.24180475 3.42949723 320.0756048 3.42899883 C315.5879436 3.43063104 311.10031485 3.44374829 306.6126709 3.45553589 C298.82937428 3.4744374 291.04609341 3.4861239 283.26277733 3.49307442 C271.99515011 3.50323285 260.72757049 3.52529015 249.45996795 3.55046033 C231.16187482 3.59110164 212.86377713 3.62354114 194.56565857 3.650177 C192.92165077 3.65257295 192.92165077 3.65257295 191.2444307 3.65501731 C190.14710449 3.65661621 189.04977828 3.65821511 187.91919976 3.65986246 C172.38826284 3.68251367 156.85733074 3.70714827 141.32640076 3.73416138 C140.23506207 3.73605752 139.14372339 3.73795367 138.01931383 3.73990727 C119.8045111 3.77171712 101.58971729 3.80747644 83.37492591 3.84520286 C72.14131152 3.86821249 60.90770319 3.88717738 49.67407349 3.9008696 C41.96770809 3.91041991 34.2613529 3.92327034 26.55499699 3.93867845 C22.11196145 3.94741823 17.66893852 3.95453447 13.22589493 3.95731926 C9.15126455 3.95988801 5.07666734 3.96700501 1.00205014 3.97759151 C-0.46513471 3.98060859 -1.9323241 3.98199496 -3.39951197 3.9815032 C-19.48650587 3.28050068 -19.48650587 3.28050068 -34.77101135 7.12698364 C-35.10101135 7.78698364 -35.43101135 8.44698364 -35.77101135 9.12698364 C-36.65788635 9.08573364 -37.54476135 9.04448364 -38.45851135 9.00198364 C-41.69867447 8.93384613 -41.69867447 8.93384613 -44.20851135 10.12698364 C-47.4828249 11.40476454 -50.28869493 11.26354507 -53.77101135 11.12698364 C-51.69819568 9.05416797 -50.66476291 8.59043058 -47.9546051 7.68948364 C-46.80701721 7.30663208 -46.80701721 7.30663208 -45.63624573 6.91604614 C-44.83509338 6.65565552 -44.03394104 6.39526489 -43.20851135 6.12698364 C-42.43442932 5.86659302 -41.66034729 5.60620239 -40.86280823 5.33792114 C-27.24957398 0.84929436 -14.28736056 -0.02432767 0 0 Z " fill="#2C69AC" transform="translate(147.77101135253906,26.873016357421875)"/>
<path d="M0 0 C0.66 0.33 1.32 0.66 2 1 C1.34 3.31 0.68 5.62 0 8 C-0.66 8 -1.32 8 -2 8 C-1.938125 8.845625 -1.87625 9.69125 -1.8125 10.5625 C-2.04015628 14.73619843 -3.20207814 17.25432947 -5 21 C-5.66 21 -6.32 21 -7 21 C-6.67 21.99 -6.34 22.98 -6 24 C-6.28650547 24.55356989 -6.57301094 25.10713978 -6.86819839 25.67748451 C-13.96639916 40.24335997 -10.28761607 63.02092689 -10.26144934 79.02296567 C-10.25686951 83.17721261 -10.2639358 87.33144363 -10.26940918 91.48568726 C-10.27824799 99.59839763 -10.27640554 107.71107075 -10.2705839 115.82378252 C-10.26604367 122.42777597 -10.26546465 129.03175907 -10.26763153 135.63575363 C-10.267938 136.5802613 -10.26824446 137.52476898 -10.26856022 138.49789809 C-10.26919976 140.4174864 -10.26984819 142.33707471 -10.2705054 144.25666301 C-10.27619304 162.20970739 -10.26967644 180.16273127 -10.25890467 198.11577229 C-10.24997933 213.4653754 -10.25151586 228.81494823 -10.26074219 244.16455078 C-10.27148773 262.04962866 -10.27563473 279.9346886 -10.26951766 297.81976926 C-10.26888066 299.7336301 -10.26825192 301.64749094 -10.26763153 303.56135178 C-10.26732298 304.50264744 -10.26701443 305.4439431 -10.26669653 306.41376287 C-10.26498173 312.99415512 -10.2678584 319.57453584 -10.27259064 326.1549263 C-10.27824772 334.19717741 -10.27658341 342.23938957 -10.26602915 350.28163631 C-10.26083514 354.37200628 -10.25860586 358.46231174 -10.26532745 362.55268097 C-10.29329457 381.12144742 -9.76043992 399.49869298 -8 418 C-7.81070071 420.07386621 -7.62220891 422.14780632 -7.43460464 424.22182655 C-7.28975486 425.81455271 -7.14489381 427.40727785 -7 429 C-6.01 429 -5.02 429 -4 429 C-3.67 427.35 -3.34 425.7 -3 424 C-1.90896815 427.27309555 -1.97969596 430.33981958 -2.03125 433.76171875 C-1.97854819 437.53648564 -1.48483879 441.25981502 -1 445 C-0.34 445 0.32 445 1 445 C1.99 447.97 2.98 450.94 4 454 C3.34 454 2.68 454 2 454 C-2.82747832 444.19201091 -6.83209036 434.47273658 -10 424 C-10.23589844 423.25363281 -10.47179687 422.50726563 -10.71484375 421.73828125 C-13.81036 410.96046191 -13.14945125 399.01658103 -13.14717102 387.91101074 C-13.15047923 386.42982848 -13.15420677 384.9486471 -13.1583125 383.46746683 C-13.16823109 379.43281328 -13.17203268 375.3981746 -13.17470181 371.36351061 C-13.17863508 366.99791884 -13.18821071 362.63233852 -13.19691467 358.26675415 C-13.2165893 347.74473224 -13.22673155 337.2227095 -13.23564246 326.70067382 C-13.24003816 321.73337604 -13.24540143 316.76607931 -13.25063133 311.79878235 C-13.26763085 295.26780163 -13.28212402 278.73682154 -13.28938007 262.20583344 C-13.29128962 257.92530822 -13.29321001 253.64478301 -13.29516602 249.36425781 C-13.29564976 248.30049653 -13.2961335 247.23673525 -13.2966319 246.14073879 C-13.30492894 228.91595932 -13.33026612 211.69124936 -13.36274669 194.46650022 C-13.39589108 176.7440014 -13.41383529 159.02153785 -13.41702431 141.29900789 C-13.41918205 131.36379963 -13.42782279 121.4286929 -13.45348549 111.49351501 C-13.4752932 103.03188707 -13.48319355 94.57038538 -13.47351871 86.10873252 C-13.46900366 81.8002249 -13.47069529 77.49197722 -13.49028015 73.18350601 C-13.60064585 47.46113764 -12.5057125 23.15872685 0 0 Z " fill="#1C61A5" transform="translate(40,88)"/>
<path d="M0 0 C1.65 0 3.3 0 5 0 C-8.38797272 14.38521463 -29.19694925 20.12584539 -48 23 C-49.60786157 23.25549779 -49.60786157 23.25549779 -51.24820518 23.51615715 C-57.65637574 24.30332711 -64.1051946 24.13789423 -70.5506897 24.12698364 C-72.0341217 24.12813682 -73.51755342 24.12972567 -75.00098455 24.13171089 C-79.06449886 24.13587709 -83.12798962 24.13382577 -87.191504 24.13072467 C-91.57870549 24.1284598 -95.96590295 24.13195558 -100.35310364 24.13470459 C-108.94200764 24.13914939 -117.53090291 24.13819161 -126.11980726 24.13529195 C-133.09944799 24.13303315 -140.07908627 24.13272746 -147.05872726 24.13381577 C-148.05226569 24.133969 -149.04580412 24.13412223 -150.06944977 24.13428011 C-152.08780612 24.13459983 -154.10616246 24.13492405 -156.1245188 24.1352527 C-175.04642155 24.13810364 -193.96831945 24.13482636 -212.8902214 24.12945233 C-229.12863961 24.12498327 -245.36705067 24.12576182 -261.60546875 24.13037109 C-280.46298063 24.13572129 -299.32048827 24.13783043 -318.17800081 24.13475883 C-320.18830196 24.13444028 -322.19860311 24.13412591 -324.20890427 24.13381577 C-325.19801568 24.13366149 -326.18712709 24.13350721 -327.20621157 24.13334826 C-334.17907724 24.13248455 -341.15194021 24.13394283 -348.12480545 24.13629532 C-356.61989119 24.13909838 -365.11496768 24.13834426 -373.61005236 24.13301457 C-377.94492684 24.13038465 -382.2797859 24.12936058 -386.61466026 24.13266373 C-390.58197253 24.13564111 -394.54925508 24.13400973 -398.51656465 24.12868617 C-399.95249247 24.12756819 -401.38842279 24.12813951 -402.824349 24.13056196 C-404.77537209 24.1336012 -406.72640221 24.12988692 -408.67742348 24.12584114 C-409.76136536 24.12567879 -410.84530725 24.12551644 -411.96209586 24.12534916 C-415.04903598 23.99797669 -417.96675523 23.57307408 -421 23 C-421 22.67 -421 22.34 -421 22 C-298.57 22 -176.14 22 -50 22 C-50 21.34 -50 20.68 -50 20 C-48.7625 20.061875 -48.7625 20.061875 -47.5 20.125 C-44.04066643 20.00145237 -41.22875431 19.39144703 -37.9296875 18.4375 C-36 18 -36 18 -32 18 C-32 17.34 -32 16.68 -32 16 C-29.69 16 -27.38 16 -25 16 C-25 15.34 -25 14.68 -25 14 C-24.34773438 13.80664062 -23.69546875 13.61328125 -23.0234375 13.4140625 C-18.3228602 12.01359552 -13.64159109 10.58791274 -9 9 C-9 8.34 -9 7.68 -9 7 C-9.66 6.67 -10.32 6.34 -11 6 C-9.906875 5.87625 -8.81375 5.7525 -7.6875 5.625 C-3.92618198 5.24535199 -3.92618198 5.24535199 -1 3 C-0.67 2.01 -0.34 1.02 0 0 Z " fill="#26629C" transform="translate(548,575)"/>
<path d="M0 0 C1.29672176 -0.00260775 2.59344351 -0.00521549 3.92945987 -0.00790226 C5.38218373 -0.00573985 6.83490745 -0.00348318 8.28763103 -0.0011425 C9.8202198 -0.00229366 11.35280828 -0.00388114 12.88539618 -0.00586975 C17.1126173 -0.01006396 21.339816 -0.00797194 25.56703722 -0.00488353 C30.11997072 -0.00262997 34.67290023 -0.00610886 39.22583294 -0.00886345 C48.15211224 -0.01332093 57.07838315 -0.01234468 66.00466279 -0.00945081 C73.25810171 -0.00719627 80.51153828 -0.00688448 87.76497746 -0.00797462 C88.79569724 -0.00812786 89.82641703 -0.00828109 90.88837075 -0.00843897 C92.98202303 -0.00875868 95.0756753 -0.00908289 97.16932758 -0.00941156 C116.82415799 -0.01226639 136.47898375 -0.00897949 156.1338134 -0.00361119 C173.007654 0.00085486 189.88148771 0.00008256 206.75532818 -0.00452995 C226.33316924 -0.00987908 245.91100622 -0.0119896 265.48884791 -0.00891769 C267.57589638 -0.00859913 269.66294485 -0.00828476 271.74999332 -0.00797462 C272.77694881 -0.00782035 273.80390429 -0.00766607 274.86197964 -0.00750712 C282.10725608 -0.00664284 289.35252993 -0.00810299 296.59780598 -0.01045418 C305.42683758 -0.01325621 314.2558603 -0.01250544 323.08489088 -0.00717343 C327.5917472 -0.00454159 332.09858869 -0.00352263 336.60544491 -0.00682259 C340.72899619 -0.00979624 344.85251883 -0.00817478 348.97606751 -0.00284503 C350.47002999 -0.00172541 351.96399487 -0.00230201 353.45795581 -0.00472082 C355.48493377 -0.00775156 357.51191848 -0.00405187 359.53889465 0 C360.66595961 0.00016235 361.79302456 0.0003247 362.954243 0.00049198 C365.74706543 0.11703056 368.2414007 0.49570535 370.95820904 1.12584114 C371.84121685 1.3024427 372.72422466 1.47904427 373.63399029 1.66099739 C375.40482362 2.01516406 377.17565695 2.36933072 378.94649029 2.72349739 C379.94229107 2.92265755 379.94229107 2.92265755 380.95820904 3.12584114 C380.95820904 4.11584114 380.95820904 5.10584114 380.95820904 6.12584114 C377.27817811 5.68423743 373.61359315 5.23268317 369.95489269 4.63623452 C361.16881139 3.23671792 352.61581379 2.84129337 343.73309612 2.87187386 C342.24947347 2.86956347 340.76585197 2.86638311 339.28223282 2.86241937 C335.24576491 2.85414209 331.2093927 2.85816411 327.17292464 2.8643918 C322.8040951 2.86894447 318.43528124 2.86191869 314.06645489 2.85643196 C305.52414274 2.84756642 296.98186586 2.84944721 288.43955236 2.85525724 C281.4939613 2.85978464 274.54838008 2.86038198 267.60278797 2.85820961 C266.61208354 2.85790314 265.62137911 2.85759668 264.60065334 2.85728092 C262.58770632 2.85664144 260.5747593 2.85599301 258.56181229 2.85533574 C239.71310676 2.84964084 220.86442073 2.85617729 202.01571841 2.86693648 C185.86087806 2.8758726 169.70606645 2.8743178 153.55122662 2.86509895 C134.76574816 2.85438386 115.98028676 2.85018863 97.19480568 2.85632348 C95.18980857 2.85696054 93.18481146 2.85758929 91.17981434 2.85820961 C89.70027959 2.85867244 89.70027959 2.85867244 88.19085525 2.85914461 C81.25727345 2.86086773 74.32370252 2.85796476 67.39012241 2.8532505 C58.93526354 2.84762795 50.48044178 2.84918703 42.02558713 2.85981199 C37.71611652 2.86505001 33.40670767 2.86715746 29.09723759 2.86051369 C25.14518635 2.85451329 21.1932536 2.85789612 17.24121297 2.86846879 C15.8187997 2.87068558 14.39637623 2.86960571 12.97396963 2.86471722 C4.09348514 2.83656054 -4.30140135 3.58812475 -13.04179096 5.12584114 C-15.70580725 5.49132566 -18.37114473 5.81164747 -21.04179096 6.12584114 C-21.04179096 5.13584114 -21.04179096 4.14584114 -21.04179096 3.12584114 C-20.12655659 2.9930677 -19.21132221 2.86029427 -18.26835346 2.72349739 C-17.07983784 2.54689583 -15.89132221 2.37029427 -14.66679096 2.18834114 C-13.48343159 2.0143177 -12.30007221 1.84029427 -11.08085346 1.66099739 C-1.6496782 0.00023774 -1.6496782 0.00023774 0 0 Z " fill="#E4FBFE" transform="translate(133.04179096221924,24.87415885925293)"/>
<path d="M0 0 C0.99 0 1.98 0 3 0 C2.85849335 0.83354946 2.7169867 1.66709892 2.57119197 2.52590746 C1.15445339 11.49977363 0.71699954 20.17847322 0.75276184 29.26307678 C0.75116945 30.75082383 0.74870161 32.23857015 0.74544543 33.72631449 C0.73909079 37.77418821 0.74505393 41.82196043 0.75320971 45.86982739 C0.75983306 50.2509237 0.75482821 54.63200951 0.75132751 59.0131073 C0.74630396 67.57948616 0.75190386 76.1458262 0.76117782 84.71220023 C0.77159852 94.69943474 0.77149065 104.68666102 0.77100524 114.67389994 C0.77050536 132.49948637 0.77964597 150.32505482 0.79418945 168.15063477 C0.80827744 185.42700529 0.81536006 202.70335998 0.81469727 219.97973633 C0.81465731 221.04402637 0.81461735 222.1083164 0.81457619 223.20485765 C0.81451565 224.79859976 0.81451565 224.79859976 0.8144539 226.42453867 C0.81376308 246.12421136 0.81965943 265.82387736 0.82860712 285.52354788 C0.8316164 292.47666237 0.83268583 299.42977563 0.83313942 306.3828907 C0.83382339 314.86152972 0.8383136 323.34015746 0.84747223 331.81879169 C0.85207129 336.14039706 0.85514273 340.46198806 0.85387802 344.78359604 C0.8527745 348.74671953 0.8563526 352.70981137 0.86352655 356.67292827 C0.86532391 358.09937924 0.86548597 359.52583352 0.86375926 360.95228458 C0.85089932 372.90835141 1.04229313 384.69057322 4.0625 396.3125 C4.24876953 397.06466797 4.43503906 397.81683594 4.62695312 398.59179688 C5.07534567 400.39686431 5.53622406 402.19882367 6 404 C5.01 403.67 4.02 403.34 3 403 C3 402.34 3 401.68 3 401 C2.34 401 1.68 401 1 401 C0.92652344 399.67935547 0.92652344 399.67935547 0.8515625 398.33203125 C0.77679687 397.17058594 0.70203125 396.00914062 0.625 394.8125 C0.55539063 393.66394531 0.48578125 392.51539063 0.4140625 391.33203125 C0.17120152 388.09463284 0.17120152 388.09463284 -1.00934726 385.67949635 C-2.16411013 382.55611842 -2.25585895 380.12324735 -2.26450634 376.79602718 C-2.27258853 375.53944992 -2.28067072 374.28287266 -2.28899783 372.98821729 C-2.28791197 371.59630629 -2.28664002 370.20439542 -2.28520203 368.81248474 C-2.29092116 367.33179014 -2.29750957 365.85109869 -2.30489284 364.37041146 C-2.32265049 360.30029923 -2.32799977 356.23025029 -2.33133328 352.16010416 C-2.33708046 347.77066859 -2.35426577 343.38127602 -2.37002563 338.99186707 C-2.39908356 330.39052369 -2.41751594 321.78918855 -2.43236574 313.18781018 C-2.45004497 303.16794188 -2.47807043 293.1481106 -2.50649796 283.12826801 C-2.5568723 265.24332304 -2.59761725 247.35836891 -2.63305664 229.47338867 C-2.66743234 212.12863835 -2.70884817 194.78392366 -2.75805664 177.43920898 C-2.76108359 176.37198903 -2.76411054 175.30476908 -2.76722922 174.20520913 C-2.77176228 172.60712178 -2.77176228 172.60712178 -2.77638692 170.97674984 C-2.83234707 151.22569569 -2.88149363 131.47462953 -2.92758697 111.72355006 C-2.94403435 104.74451757 -2.96252061 97.76549216 -2.98166466 90.7864666 C-3.00489059 82.27209248 -3.02420337 73.75771931 -3.03869756 65.2433257 C-3.04616185 60.90164669 -3.05521511 56.55998747 -3.06874657 52.21832275 C-3.08109569 48.23763361 -3.08861648 44.25696459 -3.09240565 40.27625836 C-3.09458515 38.84214885 -3.09846277 37.4080406 -3.10428592 35.97394126 C-3.19288425 13.3857685 -3.19288425 13.3857685 -1 9 C-0.77532169 7.46331135 -0.59203195 5.92031946 -0.4375 4.375 C-0.35371094 3.55773437 -0.26992188 2.74046875 -0.18359375 1.8984375 C-0.12300781 1.27195312 -0.06242187 0.64546875 0 0 Z " fill="#EDFEFE" transform="translate(27,117)"/>
<path d="M0 0 C-11.58313132 4.69586405 -23.68928821 4.14830267 -36.04911804 4.12698364 C-37.52576495 4.12813851 -39.00241158 4.12972849 -40.47905761 4.13171089 C-44.5007497 4.13585378 -48.52241781 4.13383652 -52.54410994 4.13072467 C-56.89517156 4.12845016 -61.24622922 4.13196031 -65.59729004 4.13470459 C-74.10597102 4.13913906 -82.61464316 4.13819626 -91.12332448 4.13529195 C-98.03988218 4.13302922 -104.95643741 4.13272916 -111.87299538 4.13381577 C-112.85915074 4.133969 -113.84530611 4.13412223 -114.86134497 4.13428011 C-116.86495671 4.13459985 -118.86856846 4.13492406 -120.8721802 4.1352527 C-139.63589778 4.13810057 -158.39961047 4.1348311 -177.16332725 4.12945233 C-193.25317439 4.12498284 -209.34301432 4.12576277 -225.43286133 4.13037109 C-244.13626356 4.13572549 -262.83966152 4.13782814 -281.54306442 4.13475883 C-283.53819358 4.13444029 -285.53332275 4.13412592 -287.52845192 4.13381577 C-288.50999732 4.13366149 -289.49154273 4.13350721 -290.50283193 4.13334826 C-297.4102568 4.13248587 -304.31767894 4.13393998 -311.22510338 4.13629532 C-319.64383013 4.13910302 -328.06254757 4.13833446 -336.48127326 4.13301457 C-340.77414754 4.13039101 -345.06700629 4.12934974 -349.35988045 4.13266373 C-353.29327817 4.13565425 -357.22664604 4.13398812 -361.16004107 4.12868617 C-362.57906702 4.12757376 -363.99809552 4.12812694 -365.41711982 4.13056196 C-386.66637836 4.16421432 -386.66637836 4.16421432 -389.76692122 1.45752728 C-390.17383722 0.97654328 -390.58075322 0.49555928 -391 0 C-390.23664632 0.07063622 -389.47329264 0.14127245 -388.68680704 0.21404916 C-380.08102586 0.95055041 -371.54156529 1.14419839 -362.90859985 1.13371277 C-361.42726661 1.13558541 -359.94593386 1.1378879 -358.46460187 1.14057809 C-354.4297619 1.14664631 -350.3949428 1.14656844 -346.36009932 1.14538372 C-341.9946254 1.14517845 -337.62915797 1.15071036 -333.26368713 1.15544128 C-324.72525601 1.16372039 -316.18683179 1.16649486 -307.64839698 1.16705366 C-300.70470807 1.16753001 -293.76102142 1.16959065 -286.81733322 1.17275429 C-267.10395025 1.18155241 -247.39057271 1.18617484 -227.67718776 1.18542381 C-226.61614744 1.18538386 -225.55510712 1.1853439 -224.46191406 1.18530273 C-223.39956954 1.18526185 -222.33722501 1.18522097 -221.24268822 1.18517885 C-204.02357904 1.18477234 -186.80449172 1.19434537 -169.58538885 1.2084411 C-151.878739 1.22282093 -134.1720998 1.22971044 -116.46544397 1.22884732 C-106.53493282 1.22851597 -96.60444462 1.23123615 -86.67393875 1.24202538 C-78.22058034 1.25115141 -69.76725527 1.25328828 -61.31389405 1.24651595 C-57.00620526 1.24326171 -52.69858037 1.2431543 -48.39089775 1.2518692 C-44.43808928 1.25978355 -40.48539486 1.25825297 -36.532589 1.24958507 C-35.11212739 1.2480609 -33.69165705 1.24982474 -32.27120574 1.25544515 C-23.71230475 1.28703441 -15.5626938 0.69274739 -7.13238943 -0.66884822 C-4.32705988 -0.96542369 -2.6221941 -0.92805194 0 0 Z " fill="#E4F7FE" transform="translate(511,597)"/>
<path d="M0 0 C21.12 0 42.24 0 64 0 C64 70.62 64 141.24 64 214 C42.88 214 21.76 214 0 214 C0 143.38 0 72.76 0 0 Z M1 1 C1 70.96 1 140.92 1 213 C20.8 213 40.6 213 61 213 C62.60323984 209.79352031 62.13289851 206.30863635 62.12025452 202.78707886 C62.12110894 201.92782401 62.12196337 201.06856917 62.12284368 200.1832763 C62.1244984 197.2873652 62.11897723 194.39151128 62.11352539 191.49560547 C62.11324349 189.42637127 62.11340131 187.35713697 62.1139679 185.28790283 C62.11425576 179.65596077 62.10836076 174.02403985 62.10139394 168.39210272 C62.09515862 162.51173858 62.09455646 156.63137401 62.09336853 150.75100708 C62.09025574 139.60920568 62.08204305 128.46741405 62.07201904 117.32561696 C62.06085628 104.64383009 62.05534704 91.96204277 62.05032361 79.28025222 C62.0398604 53.18682814 62.02151557 27.09341746 62 1 C41.87 1 21.74 1 1 1 Z " fill="#D9F4FE" transform="translate(155,256)"/>
<path d="M0 0 C2.3281594 3.49223909 2.25119269 4.84937712 2.25447559 8.97514534 C2.26030779 10.2316238 2.26613998 11.48810227 2.27214891 12.78265584 C2.2685153 14.18486716 2.2646909 15.58707799 2.26069641 16.98928833 C2.26371518 18.47294141 2.26760327 19.95659294 2.27228898 21.44024169 C2.28261475 25.52803956 2.28037548 29.61575017 2.27610838 33.70355535 C2.27364915 38.10878663 2.28264577 42.51399646 2.29014587 46.91921997 C2.30292136 55.55729034 2.30468269 64.19532967 2.30234561 72.83340789 C2.30056399 79.85979656 2.30230878 86.88617579 2.30657005 93.91256332 C2.30746284 95.41161234 2.30746284 95.41161234 2.30837366 96.94094517 C2.30958541 98.97119714 2.31079955 101.00144911 2.31201603 103.03170107 C2.32290439 122.09364837 2.32072408 141.155578 2.31463119 160.2175263 C2.30947166 177.63316216 2.32068962 195.04874192 2.33972941 212.46436669 C2.35913665 230.35377537 2.36735806 248.24315756 2.36360615 266.13257682 C2.3616971 276.17285688 2.36415194 286.2130893 2.37832069 296.25336075 C2.39027293 304.80975928 2.39159719 313.36608094 2.37953053 321.9224806 C2.37366615 326.28303121 2.37247384 330.64344151 2.38453293 335.00398254 C2.39547616 339.00792323 2.39218951 343.01160788 2.37827124 347.01553701 C2.37564708 348.45248313 2.37791772 349.88944987 2.38600711 351.32637562 C2.42679763 359.12280134 1.9263205 366.62479997 0.60161114 374.29794121 C0.47697205 375.02283961 0.35233296 375.74773802 0.22391694 376.49460305 C-0.4184636 379.90718872 -1.04744474 382.07116711 -3 385 C-3 381.37 -3 377.74 -3 374 C-2.34 374 -1.68 374 -1 374 C-0.67 250.58 -0.34 127.16 0 0 Z " fill="#356DA6" transform="translate(597,128)"/>
<path d="M0 0 C0.99 0.33 1.98 0.66 3 1 C3.20065581 28.2595971 3.38396016 55.51926303 3.54658794 82.77911472 C3.6225031 95.43622843 3.70410366 108.09325787 3.79907227 120.75024414 C3.88182891 131.78159566 3.95393481 142.81295647 4.01323253 153.84445995 C4.04500494 159.68597794 4.08212304 165.52735197 4.13199425 171.3687458 C4.17876872 176.8671265 4.2112988 182.36540773 4.2329216 187.8639431 C4.24336369 189.88157175 4.25900288 191.89918127 4.28024101 193.91672516 C4.30847814 196.67322371 4.31794652 199.42918152 4.32279968 202.18580627 C4.33542916 202.98251553 4.34805863 203.77922478 4.36107081 204.60007674 C4.35858106 205.34552715 4.35609131 206.09097756 4.35352612 206.85901737 C4.35770304 207.49428948 4.36187996 208.1295616 4.36618346 208.78408438 C4 211 4 211 1 218 C-20.12 218 -41.24 218 -63 218 C-63 217.34 -63 216.68 -63 216 C-63.66 215.67 -64.32 215.34 -65 215 C-43.55 215 -22.1 215 0 215 C0 144.05 0 73.1 0 0 Z " fill="#125AA9" transform="translate(219,256)"/>
<path d="M0 0 C5.54791214 5.54791214 5.32255746 15.97002511 5.37479556 23.34699106 C5.37321097 25.45901927 5.35707257 27.57065694 5.34057617 29.68261719 C5.33972799 31.22131331 5.34020877 32.76001064 5.34190369 34.29870605 C5.3427576 38.4384682 5.32523089 42.57796476 5.30418181 46.71766567 C5.28531318 51.0577958 5.2836566 55.39793332 5.28010559 59.73809814 C5.27081485 67.94009468 5.24624169 76.14196996 5.21605712 84.34391332 C5.18242013 93.68861576 5.16600381 103.03332426 5.15097082 112.37807226 C5.11968916 131.58546403 5.06471466 150.79268977 5 170 C-15.79 170 -36.58 170 -58 170 C-58.03738281 161.41613281 -58.07476562 152.83226562 -58.11328125 143.98828125 C-58.14743234 137.83876189 -58.18342874 131.68927489 -58.22207737 125.53978443 C-58.27182321 117.58570371 -58.31730075 109.63167604 -58.34643555 101.67749023 C-58.36952735 95.37694793 -58.4030482 89.07655866 -58.44870156 82.77613801 C-58.47248473 79.44509463 -58.48975354 76.11433892 -58.49761391 72.7831974 C-58.50731106 69.04965673 -58.53543831 65.31665755 -58.56762695 61.58325195 C-58.56619186 60.49855118 -58.56475677 59.4138504 -58.5632782 58.29627991 C-58.65704479 50.54867368 -60.00380097 43.4777586 -62 36 C-61.01 36 -60.02 36 -59 36 C-55.85078824 42.89731953 -55.55815824 48.86056703 -55.56762695 56.3828125 C-55.5574353 57.60317703 -55.54724365 58.82354156 -55.53674316 60.08088684 C-55.5118388 63.40481596 -55.49990829 66.72830416 -55.49388909 70.05228806 C-55.48446815 73.53435715 -55.45826196 77.01630031 -55.43388367 80.49829102 C-55.39031679 87.08182777 -55.36170976 93.66533995 -55.33856028 100.24897671 C-55.31145578 107.7484878 -55.26754767 115.24787159 -55.22227156 122.74729156 C-55.12956596 138.16479547 -55.05782101 153.58232339 -55 169 C-47.20366034 168.88261737 -39.40746593 168.75778239 -31.61132812 168.62768555 C-28.95738452 168.58428752 -26.3034121 168.54261612 -23.64941406 168.50268555 C-19.84170842 168.44510075 -16.03414845 168.3813725 -12.2265625 168.31640625 C-11.03382721 168.29969376 -9.84109192 168.28298126 -8.61221313 168.26576233 C-7.51122284 168.24581711 -6.41023254 168.22587189 -5.27587891 168.20532227 C-4.30325104 168.18977798 -3.33062317 168.1742337 -2.32852173 168.15821838 C0.02390474 168.14869349 0.02390474 168.14869349 2 167 C3.06260619 163.81218142 3.12319009 161.55989022 3.12025452 158.21040344 C3.12162918 157.00305542 3.12300385 155.7957074 3.12442017 154.55177307 C3.12088105 153.21200537 3.11724624 151.87223791 3.11352539 150.5324707 C3.11324335 149.12317914 3.11340158 147.71388743 3.1139679 146.30459595 C3.11425521 142.47637046 3.10836905 138.6481762 3.10139394 134.81995797 C3.09514952 130.82009301 3.09455574 126.82022736 3.09336853 122.82035828 C3.09025843 115.24497586 3.08204936 107.66960785 3.07201904 100.09423178 C3.06084794 91.47038632 3.05534494 82.84654017 3.05032361 74.22268927 C3.0398665 56.48178468 3.02227325 38.7408935 3 21 C2.34 20.67 1.68 20.34 1 20 C0.67 13.4 0.34 6.8 0 0 Z " fill="#DFFBFF" transform="translate(465,300)"/>
<path d="M0 0 C9.19805406 8.29279742 14.37538398 19.42507289 15.18054581 31.76764107 C15.24471373 34.92047657 15.2475075 38.06751902 15.22705078 41.22094727 C15.22734283 42.41219711 15.22763489 43.60344696 15.22793579 44.83079529 C15.22678811 48.06989904 15.21681588 51.3088259 15.20278788 54.54789472 C15.19021392 57.94313097 15.1891048 61.33837137 15.18673706 64.73362732 C15.18054175 71.15073387 15.16415757 77.5677716 15.14403808 83.98484796 C15.11941529 92.01397393 15.10852585 100.04311128 15.09765625 108.07226562 C15.07822462 122.38156392 15.03815245 136.6907122 15 151 C35.46 151 55.92 151 77 151 C77 151.33 77 151.66 77 152 C56.21 152 35.42 152 14 152 C12.7608179 149.52163579 12.87256247 147.87875028 12.86869812 145.10580444 C12.86468994 144.07126129 12.86068176 143.03671814 12.85655212 141.9708252 C12.85708084 140.83109253 12.85760956 139.69135986 12.8581543 138.51708984 C12.85467987 137.32020538 12.85120544 136.12332092 12.84762573 134.89016724 C12.84025778 132.28301795 12.83458966 129.67591988 12.83133507 127.06876755 C12.82542445 122.94136115 12.80888174 118.81404099 12.78999329 114.68667603 C12.78365554 113.27319151 12.77732992 111.85970693 12.77101612 110.44622231 C12.76785031 109.73822337 12.7646845 109.03022444 12.76142275 108.300771 C12.71937267 98.69125217 12.68639488 89.08177261 12.67407227 79.47216797 C12.66567695 72.99182353 12.64312899 66.51169177 12.6047166 60.03145373 C12.58499882 56.60388484 12.5725368 53.17663357 12.57755089 49.74900436 C12.57990477 45.91877109 12.55772705 42.08939479 12.5300293 38.25927734 C12.53663071 37.13169006 12.54323212 36.00410278 12.55003357 34.84234619 C12.48103953 29.02371887 11.99314485 24.72466842 8.97233295 19.68522072 C7.40210049 16.96373703 6.75711511 14.02846043 6 11 C5.690625 9.7934375 5.690625 9.7934375 5.375 8.5625 C5.25125 8.046875 5.1275 7.53125 5 7 C4.34 7 3.68 7 3 7 C2.01 5.515 2.01 5.515 1 4 C0.01 3.67 -0.98 3.34 -2 3 C-2 2.01 -2 1.02 -2 0 C-2.66386719 -0.19335938 -3.32773437 -0.38671875 -4.01171875 -0.5859375 C-4.89472656 -0.84632813 -5.77773438 -1.10671875 -6.6875 -1.375 C-7.55761719 -1.63023437 -8.42773438 -1.88546875 -9.32421875 -2.1484375 C-12 -3 -12 -3 -14.2734375 -4.0859375 C-18.17460051 -5.39377725 -21.8517299 -5.29002387 -25.9375 -5.25 C-27.11602539 -5.26160156 -27.11602539 -5.26160156 -28.31835938 -5.2734375 C-32.97065435 -5.25786496 -36.6027286 -4.66246047 -41 -3 C-43.66701495 -2.52725153 -46.30183576 -2.27912044 -49 -2 C-49.33 -1.01 -49.66 -0.02 -50 1 C-50.66 1 -51.32 1 -52 1 C-52 1.66 -52 2.32 -52 3 C-53.093125 3.53625 -54.18625 4.0725 -55.3125 4.625 C-59.04467844 6.72529475 -60.44260141 8.969086 -62 13 C-62.99 13 -63.98 13 -65 13 C-65 13.99 -65 14.98 -65 16 C-65.66 16 -66.32 16 -67 16 C-64.43596848 6.8834435 -55.77896714 0.54910305 -48.06640625 -4.1875 C-32.92952306 -12.47166947 -13.53321063 -10.42947261 0 0 Z " fill="#1D5E9B" transform="translate(392,320)"/>
<path d="M0 0 C2.9719385 1.12451727 5.33440687 2.22293791 8 4 C8 4.66 8 5.32 8 6 C9.10408203 6.29003906 9.10408203 6.29003906 10.23046875 6.5859375 C11.20628906 6.84632813 12.18210937 7.10671875 13.1875 7.375 C14.15042969 7.63023437 15.11335938 7.88546875 16.10546875 8.1484375 C18.82752819 8.94925931 21.38289155 9.90953815 24 11 C25.35207934 11.52622827 26.7061217 12.04745377 28.0625 12.5625 C28.71347656 12.81128906 29.36445312 13.06007813 30.03515625 13.31640625 C34.27844268 14.79269875 38.26073232 15.24825126 42.75 15.5625 C43.92046875 15.64628906 45.0909375 15.73007812 46.296875 15.81640625 C47.18890625 15.87699219 48.0809375 15.93757812 49 16 C49 16.66 49 17.32 49 18 C169.45 18 289.9 18 414 18 C414 18.33 414 18.66 414 19 C367.15364257 19.21930421 320.30723693 19.41716693 273.46067059 19.58644359 C267.92470756 19.60646569 262.38874519 19.62666453 256.8527832 19.64697266 C255.75071501 19.65101251 254.64864683 19.65505237 253.51318263 19.65921465 C235.68992856 19.72497051 217.86676618 19.80503065 200.04359657 19.89041659 C181.74300765 19.97776983 163.44240462 20.04965949 145.14169782 20.10732102 C133.85745337 20.14335879 122.57339106 20.19132654 111.28926682 20.25476131 C103.5417659 20.29715686 95.79430125 20.32447463 88.04670066 20.3401753 C83.5828018 20.34965929 79.11918147 20.36556048 74.65539551 20.39944649 C70.55696292 20.43041112 66.4589118 20.44215551 62.36036723 20.43952778 C60.88898333 20.44181415 59.41758881 20.45075403 57.94629932 20.4675779 C44.34499784 20.61605896 31.13393283 18.38701405 18.6875 12.6875 C18.04361328 12.39480225 17.39972656 12.10210449 16.73632812 11.80053711 C10.58817015 8.94310316 4.75310558 5.58479496 -1 2 C-0.67 1.34 -0.34 0.68 0 0 Z " fill="#0D66BC" transform="translate(79,578)"/>
<path d="M0 0 C0.99 0 1.98 0 3 0 C3.07002614 19.50573454 3.12295676 39.01144363 3.15543652 58.51727772 C3.17091708 67.57381704 3.19202926 76.63027833 3.22631836 85.68676758 C3.25618438 93.57877598 3.27556634 101.4707279 3.28226548 109.36279124 C3.28618251 113.54307241 3.29541259 117.72319195 3.31719017 121.9034214 C3.33751123 125.83582812 3.34384275 129.76800619 3.33932304 133.70046043 C3.34015022 135.14567684 3.34614204 136.59090068 3.35761642 138.03607178 C3.37249018 140.00554409 3.367178 141.97513834 3.36076355 143.94465637 C3.36352893 145.04804257 3.36629431 146.15142878 3.36914349 147.28825092 C3 150 3 150 1.64710999 151.85591125 C-0.87523942 153.60794457 -2.9915367 153.35907787 -6.03198242 153.34057617 C-7.89357246 153.34023628 -7.89357246 153.34023628 -9.79277039 153.33988953 C-11.14700684 153.32456968 -12.50123961 153.3089217 -13.85546875 153.29296875 C-15.2412317 153.28737251 -16.62700059 153.28310254 -18.01277161 153.28010559 C-21.65762764 153.26865883 -25.30212423 153.23919358 -28.94683838 153.20599365 C-32.66698342 153.17528885 -36.38718661 153.16159941 -40.10742188 153.14648438 C-47.40511167 153.11432331 -54.70250544 153.06312951 -62 153 C-62.33 152.01 -62.66 151.02 -63 150 C-42.21 150 -21.42 150 0 150 C0 100.5 0 51 0 0 Z " fill="#437FC6" transform="translate(470,320)"/>
<path d="M0 0 C2.7886427 -0.09016397 5.3546458 0.01965352 8.125 0.25 C19.51577516 1.00476614 30.90215515 1.29945324 42.3125 1.5625 C44.15446288 1.6063092 45.99642258 1.65025212 47.83837891 1.69433594 C52.22553054 1.79873917 56.61274079 1.90022394 61 2 C61.495 3.485 61.495 3.485 62 5 C41.21 5 20.42 5 -1 5 C-1 75.62 -1 146.24 -1 219 C-1.33 219 -1.66 219 -2 219 C-2.04667083 190.88891771 -2.08196469 162.77784121 -2.10362434 134.66672802 C-2.11394752 121.61496373 -2.12802771 108.56322347 -2.15087891 95.51147461 C-2.17078095 84.13877752 -2.18370886 72.76609782 -2.18817699 61.3933838 C-2.19078978 55.36873713 -2.19695252 49.34414026 -2.21146011 43.31950951 C-2.22499372 37.65366599 -2.22923122 31.98789298 -2.22621536 26.32203484 C-2.22676742 24.23825447 -2.2307699 22.15447184 -2.23841095 20.07070541 C-2.24830615 17.23403545 -2.24598879 14.39763457 -2.24050903 11.56095886 C-2.24633472 10.72925255 -2.2521604 9.89754625 -2.25816262 9.04063672 C-2.23782047 5.16649354 -2.19991087 3.29986631 0 0 Z " fill="#1658A0" transform="translate(155,250)"/>
<path d="M0 0 C0.99 0 1.98 0 3 0 C2.85885572 0.83297501 2.71771144 1.66595002 2.57229006 2.5241667 C1.15510857 11.5111973 0.70740392 20.21488493 0.7215271 29.31259155 C0.71651128 30.8054807 0.71063178 32.29836714 0.70397437 33.79124987 C0.68831573 37.85279822 0.68475157 41.91427714 0.68332577 45.97585201 C0.67960675 50.37103138 0.66443906 54.76617374 0.65071106 59.16133118 C0.62851246 66.76273581 0.61345484 74.36412714 0.60334396 81.9655571 C0.58871514 92.95574095 0.56316669 103.94587845 0.53501268 114.93603499 C0.48962081 132.76984435 0.45297467 150.60366041 0.421875 168.4375 C0.39165824 185.75424373 0.35729365 203.0709711 0.31738281 220.38769531 C0.31492126 221.4563486 0.31245972 222.52500188 0.30992357 223.6260386 C0.29754837 228.98753145 0.28509195 234.34902412 0.27259517 239.71051669 C0.16914133 284.14032162 0.0799006 328.57014689 0 373 C-0.33 373 -0.66 373 -1 373 C-1.00173625 372.26939338 -1.0034725 371.53878676 -1.00526136 370.78604054 C-1.10822112 327.51374391 -1.2163188 284.24146273 -1.33111694 240.9691958 C-1.34488702 235.77699001 -1.35861404 230.5847841 -1.37231445 225.39257812 C-1.37504276 224.35887466 -1.37777106 223.32517119 -1.38058204 222.26014337 C-1.42469382 205.50808177 -1.46531479 188.75601343 -1.50465261 172.00394002 C-1.54507449 154.82320182 -1.58923164 137.64247617 -1.63687855 120.46175647 C-1.6661764 109.85472388 -1.6925377 99.24769225 -1.71517897 88.64064333 C-1.73096975 81.373504 -1.75037868 74.10638003 -1.77266841 66.83925775 C-1.78543303 62.64241076 -1.79656832 58.44557561 -1.80341911 54.24871445 C-1.80972124 50.40947336 -1.82054781 46.57027308 -1.8350333 42.7310544 C-1.8394748 41.33934143 -1.8422297 39.94762189 -1.84316199 38.55590215 C-1.84466816 36.66919283 -1.85282143 34.78249226 -1.8613348 32.89580154 C-1.86399284 31.84625455 -1.86665089 30.79670756 -1.86938947 29.71535611 C-1.98560074 27.29935654 -2.37901078 25.32006579 -3 23 C-2.94034267 20.95538053 -2.81018993 18.91208921 -2.625 16.875 C-2.53476562 15.82054687 -2.44453125 14.76609375 -2.3515625 13.6796875 C-2 11 -2 11 -1 9 C-0.77532169 7.46331135 -0.59203195 5.92031946 -0.4375 4.375 C-0.35371094 3.55773437 -0.26992188 2.74046875 -0.18359375 1.8984375 C-0.12300781 1.27195312 -0.06242187 0.64546875 0 0 Z " fill="#C4F0FF" transform="translate(27,117)"/>
<path d="M0 0 C0.33 0 0.66 0 1 0 C1.06865293 46.74483923 1.12152209 93.48967313 1.15319599 140.23455283 C1.15694815 145.75207176 1.16083111 151.26959059 1.16479492 156.78710938 C1.16558185 157.88555713 1.16636878 158.98400488 1.16717956 160.11573893 C1.18023672 177.90623064 1.20389228 195.6966933 1.23145839 213.48716778 C1.25950394 231.73916488 1.27617446 249.99114677 1.28226548 268.24316454 C1.28638368 279.50740899 1.29939503 290.77157132 1.3237494 302.0357905 C1.33959608 309.75802686 1.34440277 317.48022071 1.34050413 325.20247215 C1.33858093 329.65910599 1.3415481 334.11559622 1.35761642 338.57220459 C1.37222411 342.65349886 1.37294675 346.73455306 1.36269668 350.81585842 C1.36142999 352.29109678 1.36522823 353.76635016 1.37464955 355.24155897 C1.42007249 362.79409219 1.4283626 369.17151714 -2 376 C-2.66 376.66 -3.32 377.32 -4 378 C-3.57509978 374.38834815 -3.14057044 370.80022684 -2.51125491 367.21771556 C-1.04044075 358.73439096 -0.70814019 350.47656255 -0.7215271 341.8835907 C-0.71651261 340.39981419 -0.71063348 338.91604039 -0.70397437 337.43227035 C-0.68829973 333.39126575 -0.68475067 329.35033091 -0.68332577 325.30929959 C-0.67960961 320.93796094 -0.66444327 316.56665959 -0.65071106 312.19534302 C-0.62850361 304.63375431 -0.61345127 297.072179 -0.60334396 289.5105648 C-0.58872026 278.57792298 -0.5631732 267.64532781 -0.53501268 256.71271346 C-0.48961157 238.97263191 -0.45296922 221.23254361 -0.421875 203.49243164 C-0.39166204 186.26585711 -0.35729919 169.03929904 -0.31738281 151.81274414 C-0.31492126 150.74980212 -0.31245972 149.68686011 -0.30992357 148.59170773 C-0.29754844 143.25891238 -0.28509201 137.92611722 -0.27259517 132.59332216 C-0.16912747 88.39557109 -0.07989128 44.19779955 0 0 Z " fill="#E4FAFE" transform="translate(599,136)"/>
<path d="M0 0 C0.99 0 1.98 0 3 0 C4.83390152 8.19339874 4.91580688 15.43844188 1 23 C0.64808594 23.87785156 0.29617187 24.75570312 -0.06640625 25.66015625 C-2.38956812 31.3568865 -4.54437565 35.21403173 -9.546875 38.87890625 C-11.1582717 39.95405289 -11.1582717 39.95405289 -12 42 C-12.66 42 -13.32 42 -14 42 C-14.17660156 42.61359375 -14.35320312 43.2271875 -14.53515625 43.859375 C-16.74489371 47.08853801 -19.80622845 47.44092576 -23.4375 48.25 C-24.16179199 48.41838379 -24.88608398 48.58676758 -25.63232422 48.76025391 C-31.51486459 50.04905909 -36.98401488 50.5461439 -43 50 C-44.19109375 49.90589844 -45.3821875 49.81179687 -46.609375 49.71484375 C-53.63991101 48.96365577 -57.23865232 48.52772899 -62 43 C-62.55945313 42.35675781 -63.11890625 41.71351563 -63.6953125 41.05078125 C-64.65437209 39.88471153 -65.61269685 38.71803708 -66.5703125 37.55078125 C-68.11481807 35.75318225 -68.11481807 35.75318225 -71 34 C-72.42149484 31.0821948 -73 29.26795703 -73 26 C-73.99 25.67 -74.98 25.34 -76 25 C-76 22.03 -76 19.06 -76 16 C-74.07143413 18.89284881 -73.07328656 21.38208462 -71.875 24.625 C-67.85984698 34.33415658 -61.68097634 40.85813899 -52 45 C-42.93750921 48.60963616 -31.60611762 48.47624285 -22.5 45 C-11.96416785 39.8475451 -5.38109505 31.97709205 -0.84765625 21.28125 C0.2589627 16.99756374 0.21625107 13.02610923 0.125 8.625 C0.11597656 7.79355469 0.10695313 6.96210938 0.09765625 6.10546875 C0.0742622 4.07018663 0.03839725 2.03505436 0 0 Z " fill="#2764A7" transform="translate(224,176)"/>
<path d="M0 0 C0.74749512 0.1861084 1.49499023 0.3722168 2.26513672 0.56396484 C16.84791555 4.38900606 29.20623659 10.65301833 41.3125 19.5625 C42.22644531 20.22121094 43.14039063 20.87992188 44.08203125 21.55859375 C53.03944503 28.34365836 61.31223418 37.04483697 67.3125 46.5625 C67.3125 47.2225 67.3125 47.8825 67.3125 48.5625 C65.6625 48.2325 64.0125 47.9025 62.3125 47.5625 C61.8175 48.5525 61.8175 48.5525 61.3125 49.5625 C60.6525 49.2325 59.9925 48.9025 59.3125 48.5625 C59.4775 47.77875 59.6425 46.995 59.8125 46.1875 C60.52713677 42.90224204 60.52713677 42.90224204 59.359375 39.94140625 C56.92875567 36.53707496 54.76413779 33.9914303 51.3125 31.5625 C51.3125 30.9025 51.3125 30.2425 51.3125 29.5625 C49.9925 29.5625 48.6725 29.5625 47.3125 29.5625 C47.3125 28.9025 47.3125 28.2425 47.3125 27.5625 C45.3325 27.2325 43.3525 26.9025 41.3125 26.5625 C41.3125 24.9125 41.3125 23.2625 41.3125 21.5625 C39.3325 21.5625 37.3525 21.5625 35.3125 21.5625 C35.3125 20.2425 35.3125 18.9225 35.3125 17.5625 C34.3225 17.5625 33.3325 17.5625 32.3125 17.5625 C32.3125 16.9025 32.3125 16.2425 32.3125 15.5625 C30.0025 15.2325 27.6925 14.9025 25.3125 14.5625 C25.3125 13.5725 25.3125 12.5825 25.3125 11.5625 C22.8375 11.0675 22.8375 11.0675 20.3125 10.5625 C20.3125 9.9025 20.3125 9.2425 20.3125 8.5625 C19.508125 8.60375 18.70375 8.645 17.875 8.6875 C14.18972191 8.558192 11.00472912 7.86346543 7.4375 7.0078125 C5.02345389 6.50192784 2.77225926 6.40380585 0.3125 6.5625 C0.6425 5.2425 0.9725 3.9225 1.3125 2.5625 C-2.9775 1.9025 -7.2675 1.2425 -11.6875 0.5625 C-7.02892881 -1.76678559 -4.77441158 -1.21441998 0 0 Z M32.3125 21.5625 C33.3025 21.5625 34.2925 21.5625 35.3125 21.5625 C35.3125 22.5525 35.3125 23.5425 35.3125 24.5625 C34.3225 24.5625 33.3325 24.5625 32.3125 24.5625 C32.3125 23.5725 32.3125 22.5825 32.3125 21.5625 Z " fill="#1A62B0" transform="translate(511.6875,30.4375)"/>
<path d="M0 0 C0 0.66 0 1.32 0 2 C-10.37357631 7.55580866 -10.37357631 7.55580866 -16 8 C-16.144375 8.61875 -16.28875 9.2375 -16.4375 9.875 C-17 12 -17 12 -18 14 C-20.0625 15.125 -20.0625 15.125 -22 16 C-22 16.99 -22 17.98 -22 19 C-22.3062434 20.33981486 -22.63451555 21.67511887 -23 23 C-23.99 22.67 -24.98 22.34 -26 22 C-26.99 22 -27.98 22 -29 22 C-29.33 22.99 -29.66 23.98 -30 25 C-30.65129797 26.34090759 -31.31513275 27.67592331 -32 29 C-32.33 28.67 -32.66 28.34 -33 28 C-33.268125 28.639375 -33.53625 29.27875 -33.8125 29.9375 C-35 32 -35 32 -38 33 C-38 32.01 -38 31.02 -38 30 C-41.32901247 32.21934164 -41.75023244 33.34683329 -43 37 C-43.99 37 -44.98 37 -46 37 C-46.66 38.32 -47.32 39.64 -48 41 C-48 34.93622517 -42.76928505 30.37917221 -38.8125 26.125 C-38.32620117 25.60180176 -37.83990234 25.07860352 -37.33886719 24.53955078 C-30.6099146 17.38094995 -10.75444735 -3.58481578 0 0 Z " fill="#1066BF" transform="translate(95,39)"/>
<path d="M0 0 C3.99243664 3.12451563 7.18965979 6.87330665 10.3359375 10.828125 C9.3459375 10.828125 8.3559375 10.828125 7.3359375 10.828125 C7.3359375 10.168125 7.3359375 9.508125 7.3359375 8.828125 C6.6759375 8.828125 6.0159375 8.828125 5.3359375 8.828125 C4.3459375 7.343125 4.3459375 7.343125 3.3359375 5.828125 C2.3459375 5.498125 1.3559375 5.168125 0.3359375 4.828125 C0.3359375 3.838125 0.3359375 2.848125 0.3359375 1.828125 C-0.32792969 1.63476562 -0.99179687 1.44140625 -1.67578125 1.2421875 C-2.55878906 0.98179687 -3.44179688 0.72140625 -4.3515625 0.453125 C-5.22167969 0.19789063 -6.09179688 -0.05734375 -6.98828125 -0.3203125 C-9.6640625 -1.171875 -9.6640625 -1.171875 -11.9375 -2.2578125 C-15.83866301 -3.56565225 -19.5157924 -3.46189887 -23.6015625 -3.421875 C-24.78008789 -3.43347656 -24.78008789 -3.43347656 -25.98242188 -3.4453125 C-30.63471685 -3.42973996 -34.2667911 -2.83433547 -38.6640625 -1.171875 C-41.33107745 -0.69912653 -43.96589826 -0.45099544 -46.6640625 -0.171875 C-46.9940625 0.818125 -47.3240625 1.808125 -47.6640625 2.828125 C-48.3240625 2.828125 -48.9840625 2.828125 -49.6640625 2.828125 C-49.6640625 3.488125 -49.6640625 4.148125 -49.6640625 4.828125 C-50.7571875 5.364375 -51.8503125 5.900625 -52.9765625 6.453125 C-56.70874094 8.55341975 -58.10666391 10.797211 -59.6640625 14.828125 C-60.6540625 14.828125 -61.6440625 14.828125 -62.6640625 14.828125 C-62.6640625 15.818125 -62.6640625 16.808125 -62.6640625 17.828125 C-63.3240625 17.828125 -63.9840625 17.828125 -64.6640625 17.828125 C-62.10003098 8.7115685 -53.44302964 2.37722805 -45.73046875 -2.359375 C-31.42639238 -10.18776287 -13.53789615 -8.6747684 0 0 Z " fill="#2462A8" transform="translate(389.6640625,318.171875)"/>
<path d="M0 0 C7.47488839 0.11761027 14.94963108 0.24244167 22.42431641 0.37231445 C24.96758281 0.41564899 27.51087802 0.45732513 30.05419922 0.49731445 C33.70809619 0.55505258 37.36184831 0.61873725 41.015625 0.68359375 C42.72362274 0.70866249 42.72362274 0.70866249 44.46612549 0.73423767 C45.52692322 0.75418289 46.58772095 0.77412811 47.68066406 0.79467773 C48.61332092 0.81022202 49.54597778 0.8257663 50.50689697 0.84178162 C52.80353862 0.98753208 54.79701127 1.3564033 57 2 C57 2.66 57 3.32 57 4 C35.88 4 14.76 4 -7 4 C-7 3.34 -7 2.68 -7 2 C-4.69 2 -2.38 2 0 2 C0 1.34 0 0.68 0 0 Z " fill="#1965BB" transform="translate(263,250)"/>
<path d="M0 0 C3.20162702 0.59862354 3.91936515 0.91264558 6.25 3.4375 C8 6 8 6 8 8 C8.804375 8.12375 9.60875 8.2475 10.4375 8.375 C11.283125 8.58125 12.12875 8.7875 13 9 C13.33 9.66 13.66 10.32 14 11 C18.2668631 12.72706364 22.44360141 13.45323217 27 14 C27 14.66 27 15.32 27 16 C28.77049689 16.05410687 30.54146849 16.09284119 32.3125 16.125 C33.79169922 16.15980469 33.79169922 16.15980469 35.30078125 16.1953125 C38.22406527 16.20682639 38.22406527 16.20682639 41 14 C43.32671854 13.31060191 45.66067594 12.64533078 48 12 C51.73391121 10.93912168 51.73391121 10.93912168 54.125 8.125 C54.558125 7.073125 54.558125 7.073125 55 6 C55.97581759 4.64886795 56.97029741 3.31053056 58 2 C60.475 2.495 60.475 2.495 63 3 C57.26336365 10.54820572 50.24300695 15.53144083 41 18 C28.27802522 19.08111643 18.10539968 17.87318267 7.828125 9.7265625 C4.75668181 6.82575505 2.34518407 3.50000956 0 0 Z " fill="#D9F1F9" transform="translate(154,206)"/>
<path d="M0 0 C0.99 0.495 0.99 0.495 2 1 C1.125 7.75 1.125 7.75 0 10 C-21.12 10 -42.24 10 -64 10 C-64 9.34 -64 8.68 -64 8 C-64.66 7.67 -65.32 7.34 -66 7 C-44.55 7 -23.1 7 -1 7 C-0.67 4.69 -0.34 2.38 0 0 Z " fill="#175DAF" transform="translate(220,464)"/>
<path d="M0 0 C0.33 0 0.66 0 1 0 C1.17708287 4.07290599 0.94176776 7.5542424 0.01211548 11.52706909 C-1.1720374 17.2744327 -1.30668345 22.83904169 -1.31884766 28.69189453 C-1.32889328 29.81501541 -1.3389389 30.93813629 -1.34928894 32.09529114 C-1.37995851 35.77446015 -1.3971109 39.45355693 -1.4140625 43.1328125 C-1.43278719 45.6968548 -1.45236156 48.26089103 -1.4727478 50.82492065 C-1.51871711 56.86298597 -1.55617421 62.90104497 -1.58942068 68.93918884 C-1.62778644 75.81963689 -1.67715816 82.69999262 -1.72740483 89.58036256 C-1.83042249 103.72017304 -1.91977989 117.8600431 -2 132 C-2.33 132 -2.66 132 -3 132 C-3.20112869 116.52684664 -3.38436416 101.05355684 -3.54658794 85.57995033 C-3.62233207 78.39448124 -3.7038212 71.20916495 -3.79907227 64.02392578 C-3.88212613 57.75766018 -3.9541591 51.49137876 -4.01323253 45.22483957 C-4.04485863 41.90998907 -4.08345959 38.59546348 -4.13199425 35.28081131 C-4.18538089 31.57082465 -4.21928611 27.86112206 -4.2487793 24.15087891 C-4.26891586 23.06474304 -4.28905243 21.97860718 -4.30979919 20.85955811 C-4.34091833 13.43589014 -3.35151109 6.70302218 0 0 Z " fill="#216BC7" transform="translate(324,336)"/>
<path d="M0 0 C1.63224521 0.20403065 3.26388073 0.41870695 4.88671875 0.6875 C7.9366637 1.1385085 11.00633488 1.32227319 14.08203125 1.5234375 C16 2 16 2 18 5 C17.39414062 4.9278125 16.78828125 4.855625 16.1640625 4.78125 C0.10697223 3.00261846 -14.11296566 4.39603525 -27.25390625 14.78125 C-32.595813 19.72783538 -35.84256066 25.49376135 -39 32 C-39.33 32 -39.66 32 -40 32 C-38.86796758 22.37772441 -36.29526352 19.03379087 -29 13 C-28.34 12.34 -27.68 11.68 -27 11 C-26.01 11 -25.02 11 -24 11 C-24 10.01 -24 9.02 -24 8 C-22.68 8 -21.36 8 -20 8 C-20 7.34 -20 6.68 -20 6 C-19.28972656 5.79503906 -18.57945312 5.59007812 -17.84765625 5.37890625 C-16.92855469 5.10949219 -16.00945312 4.84007812 -15.0625 4.5625 C-14.14597656 4.29566406 -13.22945313 4.02882813 -12.28515625 3.75390625 C-10.0597507 3.20973949 -10.0597507 3.20973949 -9 2 C-6.9427083 1.68076508 -4.88386479 1.48838648 -2.8125 1.28125 C-0.9832467 1.18001957 -0.9832467 1.18001957 0 0 Z " fill="#D5EFF9" transform="translate(362,308)"/>
<path d="M0 0 C10.49809252 9.82224966 17.45243878 29.07098766 18.109375 43.3828125 C18.12242521 45.25551778 18.06931361 47.1285324 18 49 C16.515 48.505 16.515 48.505 15 48 C14.95101562 46.98679688 14.90203125 45.97359375 14.8515625 44.9296875 C14.77647436 43.57810089 14.70092919 42.22653962 14.625 40.875 C14.5940625 40.20984375 14.563125 39.5446875 14.53125 38.859375 C14.2797329 34.58358431 13.4324636 31.0178857 12 27 C12 26.01 12 25.02 12 24 C10.68 23.67 9.36 23.34 8 23 C7.67 20.69 7.34 18.38 7 16 C5.68 16.33 4.36 16.66 3 17 C2.67 16.01 2.34 15.02 2 14 C2.33 13.67 2.66 13.34 3 13 C3.45546124 8.78698355 2.52250682 7.25823798 0 4 C0 2.68 0 1.36 0 0 Z " fill="#1A69B5" transform="translate(579,79)"/>
<path d="M0 0 C0.66 0.33 1.32 0.66 2 1 C1.34 3.31 0.68 5.62 0 8 C-0.66 8 -1.32 8 -2 8 C-1.938125 8.845625 -1.87625 9.69125 -1.8125 10.5625 C-2.04015628 14.73619843 -3.20207814 17.25432947 -5 21 C-5.66 21 -6.32 21 -7 21 C-6.67 21.99 -6.34 22.98 -6 24 C-6.66314904 25.33508636 -7.33052213 26.66807598 -8 28 C-8.35895918 30.16073194 -8.63361496 32.33614959 -8.8515625 34.515625 C-8.98046875 35.76601562 -9.109375 37.01640625 -9.2421875 38.3046875 C-9.36851563 39.60664062 -9.49484375 40.90859375 -9.625 42.25 C-9.75969918 43.58080198 -9.8951082 44.91153232 -10.03125 46.2421875 C-10.36115968 49.49415433 -10.68379272 52.74667696 -11 56 C-11.33 56 -11.66 56 -12 56 C-15.22564714 37.10191511 -8.9452357 16.5652513 0 0 Z " fill="#2764AA" transform="translate(40,88)"/>
<path d="M0 0 C0.33 0 0.66 0 1 0 C1 6.6 1 13.2 1 20 C2.32 19.67 3.64 19.34 5 19 C5.474375 18.195625 5.94875 17.39125 6.4375 16.5625 C8.29291963 13.5196118 9.65276481 12.99512398 13 12 C13 11.34 13 10.68 13 10 C13.5775 9.9175 14.155 9.835 14.75 9.75 C17.13581823 9.1537989 17.13581823 9.1537989 18.75 7.125 C21.72445158 4.31579573 25.00460383 2.87783858 29 2 C29.99 2.33 30.98 2.66 32 3 C30.69289063 3.67482422 30.69289063 3.67482422 29.359375 4.36328125 C19.12942079 9.82137573 10.62861566 16.29393192 3.22265625 25.3359375 C2.48917969 26.21507812 1.75570313 27.09421875 1 28 C0.67 28 0.34 28 0 28 C0 18.76 0 9.52 0 0 Z " fill="#205E9F" transform="translate(320,256)"/>
<path d="M0 0 C2.9719385 1.12451727 5.33440687 2.22293791 8 4 C8 4.66 8 5.32 8 6 C9.10408203 6.29003906 9.10408203 6.29003906 10.23046875 6.5859375 C11.20628906 6.84632813 12.18210937 7.10671875 13.1875 7.375 C14.15042969 7.63023437 15.11335938 7.88546875 16.10546875 8.1484375 C18.82736604 8.9492116 21.38563748 9.903095 24 11 C30.0258004 13.47488231 35.95308588 14.95602319 42.33984375 16.25390625 C43.21769531 16.50011719 44.09554687 16.74632812 45 17 C45.495 17.99 45.495 17.99 46 19 C29.77896796 19.57356135 12.1452567 11.1934895 -1 2 C-0.67 1.34 -0.34 0.68 0 0 Z " fill="#2764A5" transform="translate(79,578)"/>
<path d="M0 0 C0.66 0 1.32 0 2 0 C2.5775 1.051875 3.155 2.10375 3.75 3.1875 C6.26026821 7.56505544 9.13360281 11.15329365 12.75 14.6875 C15 17 15 17 15 19 C16.65 19.33 18.3 19.66 20 20 C20.33 21.65 20.66 23.3 21 25 C21.86625 25.226875 22.7325 25.45375 23.625 25.6875 C27.68689136 27.26712442 29.85363024 28.99997302 33 32 C33.33 32.99 33.66 33.98 34 35 C26.99261531 35 20.80266419 27.03578131 16 22.3125 C1.1740585 7.42986274 1.1740585 7.42986274 0 0 Z " fill="#2767AB" transform="translate(44,543)"/>
<path d="M0 0 C6.63858223 -0.02532254 13.27715203 -0.04285528 19.91577148 -0.05493164 C22.1748908 -0.05996526 24.43400686 -0.06679262 26.69311523 -0.07543945 C29.93734543 -0.08754745 33.18153261 -0.09323799 36.42578125 -0.09765625 C37.94465691 -0.10539818 37.94465691 -0.10539818 39.49421692 -0.11329651 C40.43496567 -0.11337204 41.37571442 -0.11344757 42.3449707 -0.11352539 C43.17325882 -0.115746 44.00154694 -0.11796661 44.85493469 -0.12025452 C47 0 47 0 50 1 C50 1.99 50 2.98 50 4 C51.98 4 53.96 4 56 4 C56 4.66 56 5.32 56 6 C58.31 6.33 60.62 6.66 63 7 C63 7.99 63 8.98 63 10 C63.99 10.33 64.98 10.66 66 11 C65.34 11.33 64.68 11.66 64 12 C61.96638518 11.16054272 59.97150204 10.22645148 58 9.25 C47.38202414 4.19884371 37.65836059 1.96181557 25.87890625 1.68359375 C24.76176491 1.6524221 24.76176491 1.6524221 23.62205505 1.62062073 C21.26895375 1.5558179 18.91575157 1.49656635 16.5625 1.4375 C14.95637024 1.3942487 13.35025027 1.35063243 11.74414062 1.30664062 C7.82952751 1.20020878 3.91481409 1.09875149 0 1 C0 0.67 0 0.34 0 0 Z " fill="#1D58A0" transform="translate(371,252)"/>
<path d="M0 0 C1.65 0 3.3 0 5 0 C-7.06792695 12.96684144 -25.93574396 19.27545492 -43 22 C-43.33 21.34 -43.66 20.68 -44 20 C-42.7625 19.67 -41.525 19.34 -40.25 19 C-39.55390625 18.814375 -38.8578125 18.62875 -38.140625 18.4375 C-36 18 -36 18 -32 18 C-32 17.34 -32 16.68 -32 16 C-29.69 16 -27.38 16 -25 16 C-25 15.34 -25 14.68 -25 14 C-24.34773437 13.80664062 -23.69546875 13.61328125 -23.0234375 13.4140625 C-18.3228602 12.01359552 -13.64159109 10.58791274 -9 9 C-9 8.34 -9 7.68 -9 7 C-9.66 6.67 -10.32 6.34 -11 6 C-9.906875 5.87625 -8.81375 5.7525 -7.6875 5.625 C-3.92618198 5.24535199 -3.92618198 5.24535199 -1 3 C-0.67 2.01 -0.34 1.02 0 0 Z " fill="#2B65A9" transform="translate(548,575)"/>
<path d="M0 0 C6.17326689 -0.35539063 12.03039995 1.84045898 17.64453125 4.20703125 C18.30453125 4.86703125 18.96453125 5.52703125 19.64453125 6.20703125 C16.82760765 5.69486332 14.18265039 5.06022315 11.44921875 4.19140625 C1.56454195 1.63397447 -9.43286311 1.984824 -18.35546875 7.20703125 C-21.15731233 9.06170293 -23.77032435 11.06325297 -26.35546875 13.20703125 C-27.34546875 13.99078125 -28.33546875 14.77453125 -29.35546875 15.58203125 C-30.01546875 16.11828125 -30.67546875 16.65453125 -31.35546875 17.20703125 C-29.93842578 14.10070553 -28.24713064 11.62444985 -26.04296875 9.01953125 C-25.46933594 8.32472656 -24.89570313 7.62992188 -24.3046875 6.9140625 C-22.00285355 4.89822796 -20.35693391 4.55315546 -17.35546875 4.20703125 C-17.35546875 3.21703125 -17.35546875 2.22703125 -17.35546875 1.20703125 C-13.63108916 0.93546191 -9.90687448 0.67533168 -6.1796875 0.4453125 C-4.11844769 0.31687978 -2.05730577 0.18082455 0 0 Z " fill="#2160A0" transform="translate(186.35546875,144.79296875)"/>
<path d="M0 0 C0.66 0.66 1.32 1.32 2 2 C1.43152344 2.90878906 0.86304687 3.81757812 0.27734375 4.75390625 C-6.41572923 15.59322079 -12.72621297 26.6007293 -16 39 C-16.33 39 -16.66 39 -17 39 C-16.85957123 37.35369672 -16.71250671 35.70795821 -16.5625 34.0625 C-16.44068359 32.68771484 -16.44068359 32.68771484 -16.31640625 31.28515625 C-16 29 -16 29 -15 28 C-14.63239269 25.67182036 -14.29758419 23.3381615 -14 21 C-12.68 20.67 -11.36 20.34 -10 20 C-9.87625 19.071875 -9.7525 18.14375 -9.625 17.1875 C-9 14 -9 14 -7 11 C-6.34 11 -5.68 11 -5 11 C-4.9175 9.9275 -4.835 8.855 -4.75 7.75 C-3.94523098 3.7261549 -3.12270126 2.51830747 0 0 Z " fill="#D8EFFB" transform="translate(48,71)"/>
<path d="M0 0 C3.31744018 0.58928214 5.04663336 1.65698419 7.5 3.9375 C9.87528538 6.13463898 12.04724392 7.65960415 15 9 C15 9.66 15 10.32 15 11 C15.598125 10.835 16.19625 10.67 16.8125 10.5 C19 10 19 10 22 10 C21.835 10.928125 21.67 11.85625 21.5 12.8125 C20.92251612 15.95621353 20.92251612 15.95621353 21 19 C21.66 19 22.32 19 23 19 C23 20.65 23 22.3 23 24 C20.43057822 21.62822605 18.37520501 19.15938269 16.375 16.3125 C13.17465207 11.94169234 9.34863992 8.52070899 5.26953125 4.98046875 C3.43312869 3.37796256 1.69424771 1.74943493 0 0 Z " fill="#1D63AB" transform="translate(438,265)"/>
<path d="M0 0 C0.99257812 0.51949219 1.98515625 1.03898438 3.0078125 1.57421875 C14.03053013 7.26239435 25.0365275 11.65083115 37 15 C37 15.33 37 15.66 37 16 C32.85291702 17.24412489 30.60385191 17.05261759 26.875 15.0625 C26.23304687 14.68222656 25.59109375 14.30195312 24.9296875 13.91015625 C22.75263005 12.71560639 22.75263005 12.71560639 19 13 C19 12.34 19 11.68 19 11 C17.9275 10.896875 16.855 10.79375 15.75 10.6875 C11.9647974 9.99354619 10.87293068 9.31687958 8 7 C6.96875 6.71125 5.9375 6.4225 4.875 6.125 C2 5 2 5 0.8203125 2.4296875 C0.54960938 1.62789062 0.27890625 0.82609375 0 0 Z " fill="#D6F0FB" transform="translate(80,581)"/>
<path d="M0 0 C1 2 1 2 0.375 4.25 C-1.33742238 7.67484477 -3.49201796 10.10617457 -6 13 C-6.33 13.66 -6.66 14.32 -7 15 C-8.5234375 16.10546875 -8.5234375 16.10546875 -10.375 17.1875 C-10.98085938 17.55230469 -11.58671875 17.91710937 -12.2109375 18.29296875 C-14 19 -14 19 -17 18 C-15.625 16 -15.625 16 -14 14 C-13.34 14 -12.68 14 -12 14 C-12 13.34 -12 12.68 -12 12 C-10.5390625 10.59765625 -10.5390625 10.59765625 -8.625 9.0625 C-6.16098476 7.08013383 -4.79533563 5.69300345 -3 3 C-2.34 3 -1.68 3 -1 3 C-0.67 2.01 -0.34 1.02 0 0 Z " fill="#D9F2F7" transform="translate(572,557)"/>
<path d="M0 0 C0.66 0.33 1.32 0.66 2 1 C-1.11336814 5.00290189 -3.54981895 7.48964146 -8 10 C-11.06334938 12.70295534 -12.92412207 15.50875076 -15 19 C-15.66 19.33 -16.32 19.66 -17 20 C-17.72159424 21.64363134 -18.39351421 23.31050386 -19 25 C-19.99 25 -20.98 25 -22 25 C-22.66 26.32 -23.32 27.64 -24 29 C-24 22.93425498 -18.76786273 18.38193028 -14.8125 14.125 C-14.09936646 13.3510791 -14.09936646 13.3510791 -13.37182617 12.56152344 C-9.17783757 8.0706091 -4.7066858 3.95129178 0 0 Z " fill="#2C68A5" transform="translate(71,51)"/>
<path d="M0 0 C7.51162934 5.87866644 15.93405955 13.76830086 19 23 C17.35 22.67 15.7 22.34 14 22 C13.67 22.66 13.34 23.32 13 24 C12.34 23.67 11.68 23.34 11 23 C11.165 22.21625 11.33 21.4325 11.5 20.625 C12.21463677 17.33974204 12.21463677 17.33974204 11.046875 14.37890625 C8.61625567 10.97457496 6.45163779 8.4289303 3 6 C3 5.34 3 4.68 3 4 C2.01 4 1.02 4 0 4 C0 2.68 0 1.36 0 0 Z " fill="#185EA6" transform="translate(560,56)"/>
<path d="M0 0 C-0.33 0.66 -0.66 1.32 -1 2 C-2.33333333 2.33333333 -3.66666667 2.66666667 -5 3 C-5.33 3.66 -5.66 4.32 -6 5 C-6.886875 4.95875 -7.77375 4.9175 -8.6875 4.875 C-11.92766312 4.80686249 -11.92766312 4.80686249 -14.4375 6 C-17.71181355 7.2777809 -20.51768358 7.13656143 -24 7 C-20.94772947 3.94772947 -17.16658769 3.15653346 -13.125 1.8125 C-12.30902344 1.52697266 -11.49304688 1.24144531 -10.65234375 0.94726562 C-9.46705078 0.54991211 -9.46705078 0.54991211 -8.2578125 0.14453125 C-7.5373877 -0.09934326 -6.81696289 -0.34321777 -6.07470703 -0.59448242 C-3.72175684 -1.05438478 -2.25623333 -0.74371194 0 0 Z " fill="#2969B1" transform="translate(118,31)"/>
<path d="M0 0 C3.43604465 2.68252609 4.36570831 6.31308286 5.625 10.3125 C5.8415625 10.96412109 6.058125 11.61574219 6.28125 12.28710938 C8.4614244 19.00931376 9.12062606 25.0036887 9 32 C8.01 31.67 7.02 31.34 6 31 C5.96261719 30.02160156 5.92523437 29.04320313 5.88671875 28.03515625 C5.51028996 20.52872338 4.7508691 14.05657727 2 7 C2 6.34 2 5.68 2 5 C1.34 5 0.68 5 0 5 C0 3.35 0 1.7 0 0 Z " fill="#2A609C" transform="translate(588,96)"/>
<path d="M0 0 C1.0984408 3.27094326 0.92127321 5.02962962 -0.328125 8.22265625 C-0.63363281 9.00833984 -0.93914063 9.79402344 -1.25390625 10.60351562 C-1.74697266 11.82071289 -1.74697266 11.82071289 -2.25 13.0625 C-2.71986328 14.28549805 -2.71986328 14.28549805 -3.19921875 15.53320312 C-4.8066094 19.59169778 -5.82781832 21.82781832 -9 25 C-8.505 20.545 -8.505 20.545 -8 16 C-7.34 16 -6.68 16 -6 16 C-5.731875 14.783125 -5.46375 13.56625 -5.1875 12.3125 C-4.30908223 8.76118245 -3.0194013 6.07300197 -1 3 C-0.67 2.01 -0.34 1.02 0 0 Z " fill="#245FA0" transform="translate(593,514)"/>
<path d="M0 0 C0.66 0 1.32 0 2 0 C3.4866338 2.47772301 4.03988791 4.2906119 4.4375 7.1875 C4.89876195 10.31383097 5.51116867 12.48710247 6.625 15.375 C8.36378924 20.2553698 7.88353311 23.93976493 7 29 C5.13766181 26.20649271 4.68664457 25.18957401 4.21875 22.05078125 C4.09886719 21.28443359 3.97898437 20.51808594 3.85546875 19.72851562 C3.73816406 18.93123047 3.62085938 18.13394531 3.5 17.3125 C2.61429467 11.43861908 1.52325462 5.7450336 0 0 Z " fill="#D0EAF8" transform="translate(592,102)"/>
<path d="M0 0 C7.80518362 0.33935581 13.91398004 3.93890751 19.41796875 9.3984375 C21.34087552 11.55617714 23.20085536 13.73850534 25 16 C24.01 16 23.02 16 22 16 C22 15.34 22 14.68 22 14 C21.34 14 20.68 14 20 14 C19.34 13.01 18.68 12.02 18 11 C17.01 10.67 16.02 10.34 15 10 C15 9.01 15 8.02 15 7 C14.33613281 6.80664062 13.67226563 6.61328125 12.98828125 6.4140625 C4.21792619 3.82776801 4.21792619 3.82776801 0 2 C0 1.34 0 0.68 0 0 Z " fill="#2661A1" transform="translate(375,313)"/>
<path d="M0 0 C0 0.66 0 1.32 0 2 C-1.95927063 3.7143618 -3.95880212 5.38405168 -6 7 C-6 6.01 -6 5.02 -6 4 C-6.99 4.66 -7.98 5.32 -9 6 C-10.97265625 6.703125 -10.97265625 6.703125 -13.0625 7.25 C-13.75472656 7.44078125 -14.44695312 7.6315625 -15.16015625 7.828125 C-15.76730469 7.88484375 -16.37445313 7.9415625 -17 8 C-17.66 7.34 -18.32 6.68 -19 6 C-17.06305322 5.18618205 -15.12542289 4.37399084 -13.1875 3.5625 C-12.10855469 3.11003906 -11.02960938 2.65757812 -9.91796875 2.19140625 C-6.24320654 0.69100133 -4.03005276 0 0 0 Z " fill="#D2E9F6" transform="translate(365,255)"/>
<path d="M0 0 C0.33 0 0.66 0 1 0 C1.58233717 10.1973709 1.55491642 18.95565721 -4 28 C-4.99 28.66 -5.98 29.32 -7 30 C-7.33 28.35 -7.66 26.7 -8 25 C-7.01 24.67 -6.02 24.34 -5 24 C-4.26676204 21.98491642 -4.26676204 21.98491642 -4 20 C-3.34 20 -2.68 20 -2 20 C-1.34 13.4 -0.68 6.8 0 0 Z " fill="#CDEBF9" transform="translate(224,178)"/>
<path d="M0 0 C0 0.66 0 1.32 0 2 C-6.19265192 5.2708579 -12.2813095 8.00386732 -19 10 C-19 10.66 -19 11.32 -19 12 C-19.99 11.67 -20.98 11.34 -22 11 C-5.19101124 -1.73033708 -5.19101124 -1.73033708 0 0 Z " fill="#2665A6" transform="translate(95,39)"/>
<path d="M0 0 C0.33 0 0.66 0 1 0 C1.02578125 0.74121094 1.0515625 1.48242188 1.078125 2.24609375 C1.59431628 11.8308272 3.61314005 20.73010206 6 30 C5.01 29.67 4.02 29.34 3 29 C3 28.34 3 27.68 3 27 C2.34 27 1.68 27 1 27 C0.16069406 17.97746114 -0.12224626 9.0598059 0 0 Z " fill="#CAE8F5" transform="translate(27,491)"/>
<path d="M0 0 C2.125 0.9375 2.125 0.9375 4 2 C3.01 2.33 2.02 2.66 1 3 C0.28771856 4.98421259 -0.36515933 6.98967123 -1 9 C-2.58877029 12.37362299 -4.2854853 15.68876169 -6 19 C-6.33 19 -6.66 19 -7 19 C-7.33 16.36 -7.66 13.72 -8 11 C-6.35 10.67 -4.7 10.34 -3 10 C-2.95101562 9.36191406 -2.90203125 8.72382813 -2.8515625 8.06640625 C-2.77679688 7.24011719 -2.70203125 6.41382813 -2.625 5.5625 C-2.55539063 4.73878906 -2.48578125 3.91507813 -2.4140625 3.06640625 C-2.27742187 2.38449219 -2.14078125 1.70257813 -2 1 C-1.34 0.67 -0.68 0.34 0 0 Z " fill="#1A66B3" transform="translate(157,153)"/>
<path d="M0 0 C0.99 0 1.98 0 3 0 C2.52342873 3.5628522 2.04328558 7.12521425 1.5625 10.6875 C1.42779297 11.69490234 1.29308594 12.70230469 1.15429688 13.74023438 C0.95610352 15.20493164 0.95610352 15.20493164 0.75390625 16.69921875 C0.63345947 17.59471436 0.5130127 18.49020996 0.38891602 19.4128418 C0.00562829 21.96255933 -0.4730143 24.47643451 -1 27 C-3.21932825 23.47968622 -3.10366609 20.95643613 -2.6875 16.875 C-2.58824219 15.82054687 -2.48898438 14.76609375 -2.38671875 13.6796875 C-2 11 -2 11 -1 9 C-0.77532169 7.46331135 -0.59203195 5.92031946 -0.4375 4.375 C-0.35371094 3.55773437 -0.26992188 2.74046875 -0.18359375 1.8984375 C-0.12300781 1.27195312 -0.06242187 0.64546875 0 0 Z " fill="#D8F2F9" transform="translate(27,117)"/>
<path d="M0 0 C3.86107457 2.57404971 3.94319692 4.61020259 5 9 C5.66 9 6.32 9 7 9 C7.50059732 11.23081719 7.99783921 13.462236 8.48828125 15.6953125 C8.84940736 17.32175835 9.23021805 18.943894 9.625 20.5625 C10.1634598 24.06248873 10.05999507 27.46029079 10 31 C9.67 31 9.34 31 9 31 C8.76925781 29.82824219 8.53851563 28.65648437 8.30078125 27.44921875 C6.6051694 19.1720948 4.83690572 11.54914129 0.953125 3.96875 C0 2 0 2 0 0 Z " fill="#235E9C" transform="translate(461,289)"/>
<path d="M0 0 C6.06025967 3.75158932 11.17004139 7.75072023 16 13 C15.01 13.33 14.02 13.66 13 14 C9.17107591 11.80040531 5.89660447 9.34223592 3 6 C3 5.34 3 4.68 3 4 C2.34 4 1.68 4 1 4 C0.67 2.68 0.34 1.36 0 0 Z " fill="#D7EFF9" transform="translate(436,264)"/>
<path d="M0 0 C4.18525372 0.55603012 6.77196433 1.92573539 10.1875 4.375 C11.04730469 4.98085937 11.90710938 5.58671875 12.79296875 6.2109375 C15 8 15 8 17 11 C13.11707422 10.4752803 11.70267485 9.70267485 9 7 C7.824375 6.525625 6.64875 6.05125 5.4375 5.5625 C2 4 2 4 0.5625 1.8125 C0.376875 1.214375 0.19125 0.61625 0 0 Z " fill="#DBF2FB" transform="translate(198,149)"/>
<path d="M0 0 C2.49475413 2.49475413 2.81981066 4.34696473 3.6875 7.75 C3.95949219 8.77609375 4.23148437 9.8021875 4.51171875 10.859375 C5.0316482 14.20356123 4.73272925 16.71501249 4 20 C3.01 20 2.02 20 1 20 C0.67 13.4 0.34 6.8 0 0 Z " fill="#D8F0F7" transform="translate(465,300)"/>
<path d="M0 0 C0.66 0 1.32 0 2 0 C2.5775 1.051875 3.155 2.10375 3.75 3.1875 C6.26026821 7.56505544 9.13360281 11.15329365 12.75 14.6875 C15 17 15 17 15 19 C15.99 19.33 16.98 19.66 18 20 C17.34 20.66 16.68 21.32 16 22 C0 5.18739054 0 5.18739054 0 0 Z " fill="#26619F" transform="translate(44,543)"/>
<path d="M0 0 C4.74995685 0.60282327 8.72629449 1.93616233 13.125 3.8125 C14.32382812 4.31394531 15.52265625 4.81539062 16.7578125 5.33203125 C19.83854545 6.91693844 21.74116861 8.40964857 24 11 C23.278125 10.690625 22.55625 10.38125 21.8125 10.0625 C19.19692691 9.07439461 16.74881018 8.4712246 14 8 C14 7.34 14 6.68 14 6 C12.6696875 6.061875 12.6696875 6.061875 11.3125 6.125 C7.93551325 5.99756654 5.95555029 5.59759475 3 4 C1.1875 1.875 1.1875 1.875 0 0 Z " fill="#2360A2" transform="translate(518,33)"/>
<path d="M0 0 C1.8125 0.0625 1.8125 0.0625 4 1 C5.38938077 2.96147874 6.7260411 4.96166576 8 7 C8.66 7.33 9.32 7.66 10 8 C10 8.99 10 9.98 10 11 C10.66 11 11.32 11 12 11 C15.125 17.625 15.125 17.625 14 21 C13.58041016 20.1646875 13.58041016 20.1646875 13.15234375 19.3125 C9.41666207 12.20149179 4.68946256 6.62049937 -1 1 C-0.67 0.67 -0.34 0.34 0 0 Z " fill="#2664A3" transform="translate(209,152)"/>
<path d="M0 0 C1.37680525 4.13041574 0.63407621 5.98289599 -1 10 C-3.14810625 12.26689553 -5.48044789 14.1608617 -8 16 C-8.66 15.67 -9.32 15.34 -10 15 C-9.36191406 14.08476563 -8.72382812 13.16953125 -8.06640625 12.2265625 C-7.23170226 11.02608934 -6.3970706 9.8255659 -5.5625 8.625 C-5.14162109 8.02171875 -4.72074219 7.4184375 -4.28710938 6.796875 C-1.9779257 3.49925179 -1.9779257 3.49925179 0 0 Z " fill="#E2F4FC" transform="translate(583,541)"/>
<path d="M0 0 C2.04119788 1.61594832 4.04072937 3.2856382 6 5 C6 5.66 6 6.32 6 7 C6.99 7.33 7.98 7.66 9 8 C9 8.99 9 9.98 9 11 C10.32 11.33 11.64 11.66 13 12 C13.33 13.98 13.66 15.96 14 18 C10.44314278 14.49441279 7.03716953 10.89446761 3.6875 7.1875 C2.80449219 6.21167969 1.92148437 5.23585938 1.01171875 4.23046875 C0.34785156 3.49441406 -0.31601562 2.75835937 -1 2 C-0.67 1.34 -0.34 0.68 0 0 Z " fill="#DEF9FF" transform="translate(563,56)"/>
<path d="M0 0 C4.8245905 4.25699162 8.05863995 9.28911194 11 15 C11 15.66 11 16.32 11 17 C10.01 17.33 9.02 17.66 8 18 C3.77676538 8.58997722 3.77676538 8.58997722 2 4 C1.34 4 0.68 4 0 4 C0 2.68 0 1.36 0 0 Z " fill="#D1EBF9" transform="translate(452,278)"/>
<path d="M0 0 C0.33 0 0.66 0 1 0 C1.12036664 5.77759884 0.8320582 11.27959989 0 17 C-0.66 17 -1.32 17 -2 17 C-2 18.65 -2 20.3 -2 22 C-2.33 22 -2.66 22 -3 22 C-3.41136629 14.12309743 -2.436168 7.49701701 0 0 Z " fill="#C9E5F3" transform="translate(151,170)"/>
<path d="M0 0 C5.44567686 1.02862785 10.11817117 2.24614784 15 5 C14.67 5.66 14.34 6.32 14 7 C12.22694336 6.74412595 10.45655392 6.46972261 8.6875 6.1875 C7.20830078 5.96126953 7.20830078 5.96126953 5.69921875 5.73046875 C2.85876049 4.96177744 1.72979337 4.34378146 0 2 C0 1.34 0 0.68 0 0 Z " fill="#E6F8FC" transform="translate(416,256)"/>
<path d="M0 0 C0 0.99 0 1.98 0 3 C-7.35028773 2.11796547 -14.67349017 1.05987432 -22 0 C-22 -0.33 -22 -0.66 -22 -1 C-14.22882846 -1.9880871 -7.59183029 -2.03232625 0 0 Z " fill="#CCE9F6" transform="translate(514,28)"/>
<path d="M0 0 C0.33 0.99 0.66 1.98 1 3 C2.98 3 4.96 3 7 3 C7 3.66 7 4.32 7 5 C9.31 5.33 11.62 5.66 14 6 C14 6.99 14 7.98 14 9 C14.99 9.33 15.98 9.66 17 10 C16.01 10.495 16.01 10.495 15 11 C12.83971405 10.14694908 10.71907274 9.19218434 8.625 8.1875 C7.48289062 7.64480469 6.34078125 7.10210937 5.1640625 6.54296875 C2.76902242 5.37501711 0.3785782 4.20100624 -2 3 C-1.34 2.67 -0.68 2.34 0 2 C0 1.34 0 0.68 0 0 Z " fill="#2864A2" transform="translate(420,253)"/>
<path d="M0 0 C0.74507812 0.00451172 1.49015625 0.00902344 2.2578125 0.01367188 C4.0885764 0.02540754 5.91929873 0.0433415 7.75 0.0625 C7.75 0.3925 7.75 0.7225 7.75 1.0625 C6.82380859 1.13597656 6.82380859 1.13597656 5.87890625 1.2109375 C0.70003972 1.66812815 -4.21242254 2.44280061 -9.265625 3.65234375 C-11.62517296 4.14004559 -13.84813342 4.21745913 -16.25 4.0625 C-11.06994508 -0.19254511 -6.53170039 -0.07501069 0 0 Z " fill="#CDEBF8" transform="translate(186.25,146.9375)"/>
<path d="M0 0 C0.33 0 0.66 0 1 0 C1.25706972 5.91260345 0.2982126 11.23918159 -1 17 C-1.99 16.67 -2.98 16.34 -4 16 C-3.47606294 10.13190493 -2.23891142 5.45126259 0 0 Z " fill="#2663AC" transform="translate(324,336)"/>
<path d="M0 0 C0.99 0.33 1.98 0.66 3 1 C-1.60513939 4.99112081 -6.75483244 7.94456259 -12 11 C-12 10.01 -12 9.02 -12 8 C-11.34 8 -10.68 8 -10 8 C-9.773125 7.38125 -9.54625 6.7625 -9.3125 6.125 C-7.59445355 3.34340099 -6.09004901 2.90440459 -3 2 C-2.01 2 -1.02 2 0 2 C0 1.34 0 0.68 0 0 Z " fill="#DAF0FB" transform="translate(85,39)"/>
<path d="M0 0 C-3.33825145 2.22550097 -6.78814883 3.6095754 -10.5 5.0625 C-11.17675781 5.33126953 -11.85351562 5.60003906 -12.55078125 5.87695312 C-15.34997642 6.98393267 -18.14382589 8.04794196 -21 9 C-21.33 8.34 -21.66 7.68 -22 7 C-21.01 7 -20.02 7 -19 7 C-19 6.34 -19 5.68 -19 5 C-16.77417611 4.15665671 -14.54503974 3.32521449 -12.3125 2.5 C-11.37374023 2.14228516 -11.37374023 2.14228516 -10.41601562 1.77734375 C-6.81807701 0.4587275 -3.83479747 -0.29329235 0 0 Z " fill="#D8F2FD" transform="translate(110,31)"/>
<path d="M0 0 C0 0.33 0 0.66 0 1 C-6.99001647 2.09751783 -13.97234063 3.17321655 -21 4 C-21 3.01 -21 2.02 -21 1 C-13.7109102 -0.91318843 -7.45067301 -1.04819354 0 0 Z " fill="#D6EEFA" transform="translate(133,27)"/>
<path d="M0 0 C0.33 0 0.66 0 1 0 C1.33 6.93 1.66 13.86 2 21 C2.66 21.33 3.32 21.66 4 22 C4 23.32 4 24.64 4 26 C3.01 26 2.02 26 1 26 C-0.30475618 23.39048764 -0.11301572 21.47298715 -0.09765625 18.5546875 C-0.09443359 17.47832031 -0.09121094 16.40195313 -0.08789062 15.29296875 C-0.07951172 14.16503906 -0.07113281 13.03710938 -0.0625 11.875 C-0.05798828 10.73933594 -0.05347656 9.60367188 -0.04882812 8.43359375 C-0.03701615 5.62234362 -0.02054507 2.8111977 0 0 Z " fill="#145DAD" transform="translate(147,180)"/>
<path d="M0 0 C0.66 0.33 1.32 0.66 2 1 C-0.93058385 5.15166045 -3.28123878 8.21390967 -8.375 9.4375 C-9.57125 9.623125 -10.7675 9.80875 -12 10 C-8.29909479 6.0747975 -4.45040344 3.05419844 0 0 Z " fill="#D2EAF8" transform="translate(344,262)"/>
<path d="M0 0 C5.94 0.99 5.94 0.99 12 2 C12 2.66 12 3.32 12 4 C12.99 4.33 13.98 4.66 15 5 C6.22421525 5.76681614 6.22421525 5.76681614 3.22265625 3.88671875 C1.875 2.5 1.875 2.5 0 0 Z " fill="#E4F7FD" transform="translate(169,218)"/>
<path d="M0 0 C0.66 0 1.32 0 2 0 C0.58036591 5.67853635 -2.39363961 9.53174216 -6 14 C-6.33 12.68 -6.66 11.36 -7 10 C-6.01 9.67 -5.02 9.34 -4 9 C-4 7.02 -4 5.04 -4 3 C-3.67 3.66 -3.34 4.32 -3 5 C-2.34 5 -1.68 5 -1 5 C-0.67 3.35 -0.34 1.7 0 0 Z " fill="#2563A7" transform="translate(582,539)"/>
<path d="M0 0 C0.33 0.66 0.66 1.32 1 2 C-3.06153846 7.78461538 -3.06153846 7.78461538 -7.8125 8.875 C-8.864375 8.91625 -9.91625 8.9575 -11 9 C-7.67149253 5.40521193 -4.01028669 2.77635232 0 0 Z " fill="#D2ECF9" transform="translate(553,575)"/>
<path d="M0 0 C2 3 2 3 2 7 C1.0625 9.125 1.0625 9.125 0 11 C-0.33 11.66 -0.66 12.32 -1 13 C-1.99 13 -2.98 13 -4 13 C-3.52140759 11.39566191 -3.04210442 9.79153584 -2.5625 8.1875 C-2.29566406 7.29417969 -2.02882813 6.40085937 -1.75390625 5.48046875 C-1.19612127 3.64526945 -0.60655425 1.81966274 0 0 Z M-1 7 C0 9 0 9 0 9 Z " fill="#D0E8F6" transform="translate(594,515)"/>
<path d="M0 0 C0 2 0 2 -2.1875 4.5 C-4.81943784 6.8395003 -6.6846364 7.95802858 -10 9 C-10 6 -10 6 -8.25 3.9375 C-5.6377102 1.68802823 -3.52003145 0 0 0 Z " fill="#E8F8FD" transform="translate(337,270)"/>
<path d="M0 0 C1.31823302 0.59155331 2.62947051 1.19871463 3.9375 1.8125 C5.03384766 2.31716797 5.03384766 2.31716797 6.15234375 2.83203125 C8 4 8 4 9 7 C6.3125 7.3125 6.3125 7.3125 3 7 C0.125 4.5 0.125 4.5 -2 2 C-1.34 1.34 -0.68 0.68 0 0 Z " fill="#266AB5" transform="translate(164,217)"/>
<path d="M0 0 C0 0.99 0 1.98 0 3 C-5.00932754 6.00559652 -8.32723489 6.29341888 -14 6 C-13.42507813 5.71382812 -12.85015625 5.42765625 -12.2578125 5.1328125 C-10.8108611 4.40683342 -9.36774192 3.6731345 -7.9296875 2.9296875 C-7.25164063 2.58164062 -6.57359375 2.23359375 -5.875 1.875 C-5.19179688 1.52179687 -4.50859375 1.16859375 -3.8046875 0.8046875 C-2 0 -2 0 0 0 Z " fill="#D7F1FA" transform="translate(538,586)"/>
<path d="M0 0 C2.90527612 2.90527612 2.71264319 6.21099025 3.125 10.125 C3.21136719 10.87910156 3.29773437 11.63320313 3.38671875 12.41015625 C3.59889261 14.27257127 3.80045763 16.13618931 4 18 C0.5965383 14.5965383 0.14884531 9.55827869 -0.125 4.8515625 C-0.125 3.23383832 -0.06877709 1.6162615 0 0 Z " fill="#215DA1" transform="translate(29,500)"/>
<path d="M0 0 C0.66 0 1.32 0 2 0 C1.27637073 6.39205856 0.19656638 12.68027076 -1 19 C-1.33 19 -1.66 19 -2 19 C-2.21432579 12.35590042 -1.51233701 6.46794133 0 0 Z " fill="#DCF2FB" transform="translate(320,340)"/>
<path d="M0 0 C-1.68673918 4.49797113 -3.81673892 8.72886302 -6 13 C-6.33 13 -6.66 13 -7 13 C-6.49540386 8.71093278 -5.94350927 4.88701855 -4 1 C-2 0 -2 0 0 0 Z " fill="#DAF0FB" transform="translate(329,327)"/>
<path d="M0 0 C1.32 0.33 2.64 0.66 4 1 C0.7 4.3 -2.6 7.6 -6 11 C-6.33 10.01 -6.66 9.02 -7 8 C-5.56640625 5.95703125 -5.56640625 5.95703125 -3.5625 3.8125 C-2.90378906 3.09707031 -2.24507812 2.38164063 -1.56640625 1.64453125 C-1.04949219 1.10183594 -0.53257813 0.55914062 0 0 Z " fill="#D6F3FE" transform="translate(61,56)"/>
<path d="M0 0 C0.66 0.33 1.32 0.66 2 1 C-1.09006441 4.97293995 -3.51859285 7.58693461 -8 10 C-9.34631825 10.98244845 -10.68441297 11.97676564 -12 13 C-10.44997253 9.11602311 -7.99523379 6.97020381 -4.875 4.25 C-3.96492188 3.45078125 -3.05484375 2.6515625 -2.1171875 1.828125 C-1.06917969 0.92320313 -1.06917969 0.92320313 0 0 Z " fill="#20619A" transform="translate(71,51)"/>
<path d="M0 0 C-6.44391072 2.92905033 -12.0734477 3.27222389 -19 2 C-19 1.67 -19 1.34 -19 1 C-16.58440932 0.63645961 -14.16805703 0.28389449 -11.75 -0.0625 C-11.06808594 -0.16626953 -10.38617188 -0.27003906 -9.68359375 -0.37695312 C-6.2150075 -0.86524925 -3.33088887 -1.22762141 0 0 Z " fill="#B7D9F1" transform="translate(511,597)"/>
<path d="M0 0 C0.33 0 0.66 0 1 0 C0.9131197 2.9389507 0.80626233 5.87481289 0.6875 8.8125 C0.66494141 9.64587891 0.64238281 10.47925781 0.61914062 11.33789062 C0.5659668 12.54155273 0.5659668 12.54155273 0.51171875 13.76953125 C0.48553467 14.50792236 0.45935059 15.24631348 0.43237305 16.00708008 C-0.10232963 18.47166391 -1.09965347 19.40052324 -3 21 C-2.17321655 13.97234063 -1.09751783 6.99001647 0 0 Z " fill="#B9DAF4" transform="translate(598,493)"/>
<path d="M0 0 C2.36810318 0.94724127 3.75207953 1.65291134 5.25 3.75 C6.19251213 6.57753638 6.1345485 9.03993304 6 12 C6.66 12.33 7.32 12.66 8 13 C7.01 13 6.02 13 5 13 C4.35309078 11.3962669 3.70751236 9.79199694 3.0625 8.1875 C2.70285156 7.29417969 2.34320312 6.40085937 1.97265625 5.48046875 C1.26386514 3.6729091 0.6139753 1.84192591 0 0 Z " fill="#D7EDF8" transform="translate(584,85)"/>
<path d="M0 0 C3.9252025 3.70090521 6.94580156 7.54959656 10 12 C9.01 12.495 9.01 12.495 8 13 C6.82439821 11.73742767 5.65977135 10.46462916 4.5 9.1875 C3.52546875 8.12595703 3.52546875 8.12595703 2.53125 7.04296875 C1 5 1 5 1 2 C0.34 1.67 -0.32 1.34 -1 1 C-0.67 0.67 -0.34 0.34 0 0 Z " fill="#D2EFF9" transform="translate(47,550)"/>
<path d="M0 0 C0 0.66 0 1.32 0 2 C-0.99 2 -1.98 2 -3 2 C-3.66 3.32 -4.32 4.64 -5 6 C-5.99 6 -6.98 6 -8 6 C-8.33 6.99 -8.66 7.98 -9 9 C-9.99 8.67 -10.98 8.34 -12 8 C-10.71064081 6.85157077 -9.41843421 5.70633773 -8.125 4.5625 C-7.04605469 3.60537109 -7.04605469 3.60537109 -5.9453125 2.62890625 C-3.83529848 0.86208728 -2.76919975 0 0 0 Z " fill="#CEEBFA" transform="translate(170,151)"/>
<path d="M0 0 C2.94751667 2.74423966 5.22773678 5.36219655 7 9 C6.67 9.99 6.34 10.98 6 12 C2.80825974 10.40412987 1.36211198 7.19368974 0 4 C0 2.68 0 1.36 0 0 Z " fill="#2A64A4" transform="translate(579,79)"/>
<path d="M0 0 C7 9.1 7 9.1 7 12 C6.01 11.67 5.02 11.34 4 11 C4 10.01 4 9.02 4 8 C3.01 7.67 2.02 7.34 1 7 C-0.25 4.5625 -0.25 4.5625 -1 2 C-0.67 1.34 -0.34 0.68 0 0 Z " fill="#D8EEF9" transform="translate(40,538)"/>
<path d="M0 0 C0.33 0 0.66 0 1 0 C1.32434322 4.64891954 0.776422 7.22406608 -2 11 C-2.33 11 -2.66 11 -3 11 C-2.67 8.03 -2.34 5.06 -2 2 C-1.34 2 -0.68 2 0 2 C0 1.34 0 0.68 0 0 Z " fill="#2264B2" transform="translate(587,528)"/>
<path d="M0 0 C0.99 0 1.98 0 3 0 C5.42857143 8.42857143 5.42857143 8.42857143 4 13 C3.67 13 3.34 13 3 13 C2.01 8.71 1.02 4.42 0 0 Z " fill="#D1EBFA" transform="translate(403,336)"/>
<path d="M0 0 C0.66 0 1.32 0 2 0 C3.60725635 3.21451269 3.05748185 6.43612536 3 10 C2.01 9.67 1.02 9.34 0 9 C0 6.03 0 3.06 0 0 Z " fill="#1B60AB" transform="translate(594,118)"/>
<path d="M0 0 C1.39195915 4.17587745 -0.17676781 6.13474776 -2 10 C-2.66 9.67 -3.32 9.34 -4 9 C-3.38461538 3.46153846 -3.38461538 3.46153846 -1.4375 1.125 C-0.963125 0.75375 -0.48875 0.3825 0 0 Z " fill="#DDF1FA" transform="translate(325,278)"/>
<path d="M0 0 C1.17046875 0.29648437 2.3409375 0.59296875 3.546875 0.8984375 C4.43890625 1.13820313 5.3309375 1.37796875 6.25 1.625 C2.47628488 2.9607457 -0.60831347 2.34908671 -4.5 1.6875 C-6.25570313 1.39552734 -6.25570313 1.39552734 -8.046875 1.09765625 C-8.93890625 0.94167969 -9.8309375 0.78570313 -10.75 0.625 C-6.93048124 -2.00328271 -4.32721184 -1.12507508 0 0 Z " fill="#225EA5" transform="translate(510.75,30.375)"/>
<path d="M0 0 C4.13937592 3.30015998 7.58662205 6.17324411 10 11 C9.01 10.67 8.02 10.34 7 10 C7 9.34 7 8.68 7 8 C6.34 8 5.68 8 5 8 C4.34 7.01 3.68 6.02 3 5 C2.01 4.67 1.02 4.34 0 4 C0 2.68 0 1.36 0 0 Z " fill="#3369A3" transform="translate(390,319)"/>
<path d="M0 0 C0.66 0.33 1.32 0.66 2 1 C1.34 3.31 0.68 5.62 0 8 C-0.66 8 -1.32 8 -2 8 C-2.33 9.32 -2.66 10.64 -3 12 C-3.66 12 -4.32 12 -5 12 C-3.68938409 7.76570244 -2.05643741 3.92592596 0 0 Z " fill="#3066A6" transform="translate(40,88)"/>
<path d="M0 0 C-1.71664683 2.07804617 -2.85081159 2.95027053 -5.4375 3.8125 C-8.35409605 4.02590947 -9.49221452 3.3790158 -12 2 C-10.37787941 1.47026689 -8.75218416 0.95146893 -7.125 0.4375 C-6.22007812 0.14746094 -5.31515625 -0.14257812 -4.3828125 -0.44140625 C-2 -1 -2 -1 0 0 Z " fill="#D1EDF9" transform="translate(524,593)"/>
<path d="M0 0 C2.9719385 1.12451727 5.33440687 2.22293791 8 4 C7.67 4.99 7.34 5.98 7 7 C4.36 5.35 1.72 3.7 -1 2 C-0.67 1.34 -0.34 0.68 0 0 Z " fill="#2966A8" transform="translate(79,578)"/>
<path d="M0 0 C1.12894876 0.93274109 2.25300876 1.87140122 3.375 2.8125 C4.00148438 3.33457031 4.62796875 3.85664062 5.2734375 4.39453125 C7 6 7 6 9 9 C6.5625 8.1875 6.5625 8.1875 4 7 C3.67 6.01 3.34 5.02 3 4 C2.01 4 1.02 4 0 4 C0 2.68 0 1.36 0 0 Z " fill="#396FA3" transform="translate(560,56)"/>
<path d="M0 0 C0.78375 0.33 1.5675 0.66 2.375 1 C4.84332497 2.11866511 4.84332497 2.11866511 7 2 C7 3.65 7 5.3 7 7 C6.67 6.34 6.34 5.68 6 5 C2.97065509 4.34227572 2.97065509 4.34227572 0 4 C0 2.68 0 1.36 0 0 Z " fill="#1B68B9" transform="translate(553,53)"/>
<path d="M0 0 C0.33 0.66 0.66 1.32 1 2 C0.34 2 -0.32 2 -1 2 C-1.33 3.65 -1.66 5.3 -2 7 C-3.32 7.33 -4.64 7.66 -6 8 C-6 7.01 -6 6.02 -6 5 C-4.68 4.34 -3.36 3.68 -2 3 C-2 2.34 -2 1.68 -2 1 C-1.34 0.67 -0.68 0.34 0 0 Z " fill="#CEEAF5" transform="translate(562,568)"/>
<path d="M0 0 C1.39195915 4.17587745 -0.17676781 6.13474776 -2 10 C-2.99 10 -3.98 10 -5 10 C-3.66511872 6.40608886 -2.03977277 3.24509304 0 0 Z " fill="#CEECF8" transform="translate(583,541)"/>
<path d="M0 0 C0.99 0 1.98 0 3 0 C3 0.66 3 1.32 3 2 C4.32 2.33 5.64 2.66 7 3 C7.33 4.98 7.66 6.96 8 9 C5.06799526 6.14723863 2.35684596 3.34920216 0 0 Z " fill="#C6E7F5" transform="translate(569,65)"/>
<path d="M0 0 C1.98 0 3.96 0 6 0 C6 0.66 6 1.32 6 2 C7.32 2.33 8.64 2.66 10 3 C5.545 3.495 5.545 3.495 1 4 C1.33 3.34 1.66 2.68 2 2 C1.34 1.34 0.68 0.68 0 0 Z " fill="#236DBE" transform="translate(122,594)"/>
<path d="M0 0 C1.01527342 4.06109369 1.05430484 4.66966838 -0.4375 8.25 C-0.72496094 8.95640625 -1.01242187 9.6628125 -1.30859375 10.390625 C-1.53675781 10.92171875 -1.76492188 11.4528125 -2 12 C-2.99 11.34 -3.98 10.68 -5 10 C-3.35 6.7 -1.7 3.4 0 0 Z " fill="#D1EDFA" transform="translate(589,529)"/>
<path d="M0 0 C0.66 0 1.32 0 2 0 C3.60080151 4.00200378 2.29279692 7.04556236 1 11 C0.67 11 0.34 11 0 11 C0 7.37 0 3.74 0 0 Z " fill="#215FA4" transform="translate(594,502)"/>
<path d="M0 0 C0.99 0 1.98 0 3 0 C2.34 1.65 1.68 3.3 1 5 C0.01 5 -0.98 5 -2 5 C-2 5.99 -2 6.98 -2 8 C-2.66 8 -3.32 8 -4 8 C-2.87548273 5.0280615 -1.77706209 2.66559313 0 0 Z " fill="#2C66AC" transform="translate(329,328)"/>
<path d="M0 0 C1.5027237 0.97498145 3.00211963 1.95509389 4.5 2.9375 C5.3353125 3.48277344 6.170625 4.02804687 7.03125 4.58984375 C7.6809375 5.05519531 8.330625 5.52054687 9 6 C9 6.33 9 6.66 9 7 C7.35 7 5.7 7 4 7 C3.67 6.01 3.34 5.02 3 4 C2.34 4 1.68 4 1 4 C0.67 2.68 0.34 1.36 0 0 Z " fill="#CDE8F5" transform="translate(436,264)"/>
<path d="M0 0 C1.65 0 3.3 0 5 0 C3.68 1.65 2.36 3.3 1 5 C0.01 4.67 -0.98 4.34 -2 4 C-2 3.34 -2 2.68 -2 2 C-1.34 2 -0.68 2 0 2 C0 1.34 0 0.68 0 0 Z " fill="#2061A3" transform="translate(554,570)"/>
<path d="M0 0 C5.75 1.75 5.75 1.75 8 4 C6.25 4.6875 6.25 4.6875 4 5 C1.75 3.6875 1.75 3.6875 0 2 C0 1.34 0 0.68 0 0 Z " fill="#D3EFF9" transform="translate(423,258)"/>
<path d="M0 0 C1.67110042 2.96178773 2.32682752 5.37071192 2.625 8.75 C2.69976562 9.54921875 2.77453125 10.3484375 2.8515625 11.171875 C2.90054688 11.77515625 2.94953125 12.3784375 3 13 C2.34 12.67 1.68 12.34 1 12 C0.33203125 9.78515625 0.33203125 9.78515625 -0.1875 7.0625 C-0.36667969 6.16660156 -0.54585937 5.27070313 -0.73046875 4.34765625 C-1 2 -1 2 0 0 Z " fill="#1D6AC0" transform="translate(146,168)"/>
<path d="M0 0 C0.66 0 1.32 0 2 0 C1.25 5.75 1.25 5.75 -1 8 C-1.625 5.125 -1.625 5.125 -2 2 C-1.34 1.34 -0.68 0.68 0 0 Z " fill="#DEF6FB" transform="translate(29,111)"/>
<path d="M0 0 C0.66 0 1.32 0 2 0 C4.60018816 3.90028225 4.15085514 7.47434569 4 12 C1.78600697 8.20458337 0.99019802 4.24370579 0 0 Z " fill="#DDF6FE" transform="translate(592,102)"/>
<path d="M0 0 C2 3 2 3 2 5 C1.01 5.66 0.02 6.32 -1 7 C-1.99 6.67 -2.98 6.34 -4 6 C-2.68 4.02 -1.36 2.04 0 0 Z " fill="#2665A9" transform="translate(45,80)"/>
<path d="M0 0 C1.65 0 3.3 0 5 0 C-0.14285714 5.57142857 -0.14285714 5.57142857 -4 6 C-3.525625 5.566875 -3.05125 5.13375 -2.5625 4.6875 C-0.76313043 2.97690387 -0.76313043 2.97690387 0 0 Z " fill="#235F9E" transform="translate(548,575)"/>
<path d="M0 0 C1.65 0.33 3.3 0.66 5 1 C3.35 2.98 1.7 4.96 0 7 C-0.93423645 3.98968256 -1.04449911 3.13349732 0 0 Z " fill="#2665AD" transform="translate(563,561)"/>
<path d="M0 0 C2.375 0.25 2.375 0.25 5 1 C6.375 2.875 6.375 2.875 7 5 C6.67 5.99 6.34 6.98 6 8 C4.02 5.36 2.04 2.72 0 0 Z " fill="#D4F1FB" transform="translate(392,320)"/>
<path d="M0 0 C-0.33 0.99 -0.66 1.98 -1 3 C-2.98 3 -4.96 3 -7 3 C-7.33 2.34 -7.66 1.68 -8 1 C-3.375 -1.125 -3.375 -1.125 0 0 Z " fill="#2D69B4" transform="translate(353,314)"/>
<path d="M0 0 C1.32 0.33 2.64 0.66 4 1 C4 1.66 4 2.32 4 3 C4.99 2.67 5.98 2.34 7 2 C7 2.99 7 3.98 7 5 C3 5 3 5 1.25 3.625 C0 2 0 2 0 0 Z " fill="#1662B8" transform="translate(434,260)"/>
<path d="M0 0 C4.59037956 1.14759489 5.33669182 2.29039218 8 6 C7.01 6.33 6.02 6.66 5 7 C3.35 4.69 1.7 2.38 0 0 Z " fill="#DBF1F9" transform="translate(154,206)"/>
<path d="M0 0 C2.56616632 3.84924948 2.55097676 6.4349304 3 11 C2.34 11 1.68 11 1 11 C0.63743142 9.5437328 0.28520207 8.08488815 -0.0625 6.625 C-0.35833984 5.40683594 -0.35833984 5.40683594 -0.66015625 4.1640625 C-1 2 -1 2 0 0 Z " fill="#3B73A7" transform="translate(593,107)"/>
<path d="M0 0 C3.375 -0.125 3.375 -0.125 7 0 C9 2 9 2 9 4 C6.03 3.01 3.06 2.02 0 1 C0 0.67 0 0.34 0 0 Z " fill="#CAE5F5" transform="translate(524,34)"/>
<path d="M0 0 C1.65 0 3.3 0 5 0 C3.35 1.65 1.7 3.3 0 5 C-0.99 4.67 -1.98 4.34 -3 4 C-2.67 3.34 -2.34 2.68 -2 2 C-1.34 2 -0.68 2 0 2 C0 1.34 0 0.68 0 0 Z " fill="#D2E9F4" transform="translate(68,50)"/>
<path d="M0 0 C2.31 0.33 4.62 0.66 7 1 C7.33 2.32 7.66 3.64 8 5 C4.62496331 3.8141763 2.35277269 2.72426311 0 0 Z " fill="#D1E9F7" transform="translate(538,40)"/>
<path d="M0 0 C0.94875 0.04125 1.8975 0.0825 2.875 0.125 C2.545 1.115 2.215 2.105 1.875 3.125 C-0.435 2.795 -2.745 2.465 -5.125 2.125 C-3.125 0.125 -3.125 0.125 0 0 Z " fill="#FAF9F3" transform="translate(116.125,24.875)"/>
<path d="M0 0 C2.31 0.33 4.62 0.66 7 1 C7 1.33 7 1.66 7 2 C2.9472484 2.98248524 -0.83861737 3.08159574 -5 3 C-5 2.67 -5 2.34 -5 2 C-3.35 2 -1.7 2 0 2 C0 1.34 0 0.68 0 0 Z " fill="#15549E" transform="translate(498,595)"/>
<path d="M0 0 C0.66 0 1.32 0 2 0 C2 1.32 2 2.64 2 4 C2.66 4 3.32 4 4 4 C4 4.66 4 5.32 4 6 C2.35 6 0.7 6 -1 6 C-0.67 4.02 -0.34 2.04 0 0 Z " fill="#F5FAFA" transform="translate(450,278)"/>
<path d="M0 0 C-4.455 1.485 -4.455 1.485 -9 3 C-9.66 2.34 -10.32 1.68 -11 1 C-9.5437328 0.63743142 -8.08488815 0.28520207 -6.625 -0.0625 C-5.40683594 -0.35833984 -5.40683594 -0.35833984 -4.1640625 -0.66015625 C-2 -1 -2 -1 0 0 Z " fill="#E0F1F9" transform="translate(357,260)"/>
<path d="M0 0 C0.99 0 1.98 0 3 0 C2.625 2.9375 2.625 2.9375 2 6 C1.01 6.495 1.01 6.495 0 7 C0 4.69 0 2.38 0 0 Z " fill="#E7F6FE" transform="translate(34,92)"/>
</svg>
